<svg width="56" height="56" viewBox="0 0 56 56" fill="none" xmlns="http://www.w3.org/2000/svg">
<path d="M41.8133 56L33.6 46.6667L37.0645 43.0578L41.8133 48.0044L52.5355 36.8356L56 41.2222M29.2693 56H5.97333C2.65813 56 0 53.2311 0 49.7778V6.22222C0 2.76889 2.65813 0 5.97333 0H47.7867C51.1019 0 53.76 2.76889 53.76 6.22222V30.4889C51.9381 29.4 49.9371 28.6222 47.7867 28.2489V6.22222H5.97333V49.7778H27.1189C27.4773 52.0178 28.224 54.1022 29.2693 56ZM26.88 43.5556H11.9467V37.3333H26.88M34.8843 31.1111H11.9467V24.8889H41.8133V28.2489C39.2747 28.6844 36.9451 29.68 34.8843 31.1111ZM41.8133 18.6667H11.9467V12.4444H41.8133" fill="#40E1D1"/>
</svg>
