<svg width="34" height="38" viewBox="0 0 34 38" fill="none" xmlns="http://www.w3.org/2000/svg">
<path d="M4.25 32.9375H10.625V20.1875H23.375V32.9375H29.75V13.8125L17 4.25L4.25 13.8125V32.9375ZM4.25 37.1875C3.08125 37.1875 2.08108 36.7717 1.2495 35.9401C0.4165 35.1071 0 34.1063 0 32.9375V13.8125C0 13.1396 0.150875 12.5021 0.452625 11.9C0.752958 11.2979 1.16875 10.8021 1.7 10.4125L14.45 0.85C14.8396 0.566667 15.2469 0.354166 15.6719 0.2125C16.0969 0.0708331 16.5396 0 17 0C17.4604 0 17.9031 0.0708331 18.3281 0.2125C18.7531 0.354166 19.1604 0.566667 19.55 0.85L32.3 10.4125C32.8313 10.8021 33.2477 11.2979 33.5495 11.9C33.8498 12.5021 34 13.1396 34 13.8125V32.9375C34 34.1063 33.5842 35.1071 32.7526 35.9401C31.9196 36.7717 30.9188 37.1875 29.75 37.1875H19.125V24.4375H14.875V37.1875H4.25Z" fill="#40E1D1"/>
</svg>
