<svg width="71" height="71" viewBox="0 0 71 71" fill="none" xmlns="http://www.w3.org/2000/svg">
<path d="M35.4999 6.65625C34.1132 6.65625 32.7354 7.12219 31.5483 7.97419L27.8741 10.5391L23.6407 11.0938H23.5719L23.5032 11.1625C22.1147 11.4761 20.8436 12.1767 19.8371 13.1832C18.8307 14.1897 18.13 15.4608 17.8165 16.8492L17.7499 16.918V16.9868L17.1952 21.2867L14.6304 24.6148L14.5594 24.6836V24.7524C13.0085 27.2307 12.9397 30.4302 14.6304 32.7953L17.264 36.4696L17.9585 40.2858L10.8163 51.1688L8.52881 54.5679H19.1367L21.7015 60.5297L23.2968 64.3438L25.5843 60.8758L32.5867 50.3368C34.4682 51.1089 36.5916 51.1799 38.4132 50.3368L45.4155 60.8758L47.7031 64.3438L49.2983 60.5297L51.8632 54.5679H62.4711L60.1835 51.1688L53.2499 40.632L53.8046 36.4718L56.3695 32.7976L56.4405 32.7288V32.66C57.9914 30.1817 58.0602 27.051 56.3695 24.6858L53.8046 21.0093L52.9726 16.8492H53.0414C53.0325 16.7959 52.9815 16.7604 52.9726 16.7094C52.5732 13.8073 50.2768 11.451 47.3569 11.0938H47.2859L43.1258 10.5391L39.4515 7.97419C38.304 7.13354 36.9223 6.67273 35.4999 6.65625ZM35.4999 11.1625C36.0102 11.1625 36.5139 11.3178 36.8867 11.5797L40.8382 14.4219L41.3242 14.768L41.8788 14.839L46.7335 15.5312H46.8C47.7985 15.6422 48.4907 16.3367 48.6039 17.3351V17.4727L49.5069 22.3961L49.5735 22.882L49.9218 23.2969L52.764 27.2485C53.2943 27.9851 53.3631 29.2343 52.6952 30.2992L49.5757 34.668L49.5047 35.2227L48.8124 40.0773V40.1438C48.7755 40.4906 48.6569 40.8236 48.4663 41.1157L48.3265 41.1867V41.2532C47.9968 41.6493 47.5238 41.8989 47.0108 41.9477H46.871L41.8101 42.8507L41.2554 42.9173L40.8382 43.2656L36.8867 46.1078C36.15 46.6381 34.8321 46.7069 33.7671 46.0391L30.1616 43.2656L29.7445 42.9195L29.121 42.8485L24.2664 42.1562H24.1998C23.8861 42.1286 23.5836 42.0258 23.318 41.8567C23.0523 41.6875 22.8312 41.457 22.6733 41.1844C22.5259 40.9286 22.4316 40.6456 22.396 40.3524V40.2148L21.4952 35.1539L21.4242 34.5992L21.0781 34.1821L18.2358 30.2305C17.7056 29.4938 17.6368 28.1759 18.3046 27.1109L21.0781 23.5054L21.4242 23.0883L21.493 22.4648L22.1187 17.8188C22.1275 17.7855 22.1786 17.7855 22.1874 17.75C22.3258 17.2159 22.6044 16.7285 22.9946 16.3384C23.3847 15.9482 23.8721 15.6696 24.4062 15.5312C24.4417 15.5224 24.4417 15.4713 24.475 15.4625L29.121 14.8368L29.6757 14.7702L30.1616 14.4219L34.1132 11.5797C34.486 11.3201 34.9896 11.1625 35.4999 11.1625ZM50.8226 44.9297L54.2217 50.1304H48.879L48.3243 51.5172L46.8 55.0516L42.0852 47.8407L43.1236 47.0797L47.4945 46.3164V46.3852C47.5455 46.3763 47.5788 46.3253 47.6321 46.3164C48.7998 46.1479 49.9009 45.669 50.8204 44.9297H50.8226ZM20.1772 44.9985C21.1407 45.8744 22.351 46.4315 23.6429 46.5938H23.7117L27.9429 47.1484L28.9125 47.9117L24.1976 55.0516L22.6733 51.5172L22.1187 50.1304H16.7803L20.1772 44.9985Z" fill="#40E1D1"/>
<path d="M45 29C45 33.9706 40.9706 38 36 38C31.0294 38 27 33.9706 27 29C27 24.0294 31.0294 20 36 20C40.9706 20 45 24.0294 45 29ZM29.0679 29C29.0679 32.8285 32.1715 35.9321 36 35.9321C39.8285 35.9321 42.9321 32.8285 42.9321 29C42.9321 25.1715 39.8285 22.0679 36 22.0679C32.1715 22.0679 29.0679 25.1715 29.0679 29Z" fill="#40E1D1"/>
</svg>
