<svg width="64" height="54" viewBox="0 0 64 54" fill="none" xmlns="http://www.w3.org/2000/svg">
<path d="M53.3333 50.0904L59.8667 54L58.1333 46.6268L64 41.6939L56.2933 41.0379L53.3333 34.1108L50.32 41.0379L42.6667 41.6939L48.48 46.6268L46.6667 54L53.3333 50.0904ZM37.5467 47.2303H5.33333C3.93447 47.182 2.60625 46.6136 1.61649 45.6397C0.626739 44.6659 0.0490812 43.3589 0 41.9825L0 5.24781C0.106667 2.38775 2.42667 0.104956 5.33333 0H58.6667C61.5733 0.104956 63.8933 2.38775 64 5.24781V32.8775C62.4533 31.4869 60.6667 30.4636 58.6667 29.7551V5.24781H5.33333V41.9825H37.5467C37.4133 42.8484 37.3333 43.7143 37.3333 44.6064C37.3333 45.4985 37.4133 46.3907 37.5467 47.2303ZM37.3333 36.7347H10.6667V33.4548C10.6667 29.0991 19.5733 26.895 24 26.895C28.4267 26.895 37.3333 29.0991 37.3333 33.4548V36.7347ZM37.3333 20.9913H48V23.6152H37.3333V20.9913ZM24 10.4956C20.3467 10.4956 17.3333 13.4606 17.3333 17.0554C17.3333 20.6501 20.3467 23.6152 24 23.6152C27.6533 23.6152 30.6667 20.6501 30.6667 17.0554C30.6667 13.4606 27.6533 10.4956 24 10.4956ZM37.3333 15.7434H53.3333V18.3673H37.3333V15.7434ZM37.3333 10.4956H53.3333V13.1195H37.3333V10.4956Z" fill="#40E1D1"/>
</svg>
