<svg width="196" height="300" viewBox="0 0 196 300" fill="none" xmlns="http://www.w3.org/2000/svg">
<line x1="22.8244" y1="290.468" x2="-1.17556" y2="281.468" stroke="black"/>
<path d="M101.5 72.6667H79.5V88.6667C79.5 90.1333 80.7375 91.3333 82.25 91.3333H98.75C100.263 91.3333 101.5 90.1333 101.5 88.6667V72.6667Z" fill="black"/>
<path d="M98.75 64.6667H82.25C80.7375 64.6667 79.5 65.8667 79.5 67.3333V73.3333H101.5V67.3333C101.5 65.8667 100.263 64.6667 98.75 64.6667Z" fill="black"/>
<path d="M98.75 71.3333H82.25C81.8375 71.3333 81.5625 71.0667 81.5625 70.6667V67.3333C81.5625 66.9333 81.8375 66.6667 82.25 66.6667H98.75C99.1625 66.6667 99.4375 66.9333 99.4375 67.3333V70.6667C99.4375 71.0667 99.1625 71.3333 98.75 71.3333Z" fill="#2F453D"/>
<path d="M96.6875 68.6667H98.0625V70H96.6875V68.6667ZM93.9375 68.6667H95.3125V70H93.9375V68.6667Z" fill="black"/>
<path d="M98.75 77.3333H96.6875C96.275 77.3333 96 77.0667 96 76.6667V75.3333C96 74.9333 96.275 74.6667 96.6875 74.6667H98.75C99.1625 74.6667 99.4375 74.9333 99.4375 75.3333V76.6667C99.4375 77.0667 99.1625 77.3333 98.75 77.3333Z" fill="black"/>
<path d="M84.3125 77.3333H82.25C81.8375 77.3333 81.5625 77.0667 81.5625 76.6667V75.3333C81.5625 74.9333 81.8375 74.6667 82.25 74.6667H84.3125C84.725 74.6667 85 74.9333 85 75.3333V76.6667C85 77.0667 84.725 77.3333 84.3125 77.3333ZM89.125 77.3333H87.0625C86.65 77.3333 86.375 77.0667 86.375 76.6667V75.3333C86.375 74.9333 86.65 74.6667 87.0625 74.6667H89.125C89.5375 74.6667 89.8125 74.9333 89.8125 75.3333V76.6667C89.8125 77.0667 89.5375 77.3333 89.125 77.3333ZM93.9375 77.3333H91.875C91.4625 77.3333 91.1875 77.0667 91.1875 76.6667V75.3333C91.1875 74.9333 91.4625 74.6667 91.875 74.6667H93.9375C94.35 74.6667 94.625 74.9333 94.625 75.3333V76.6667C94.625 77.0667 94.35 77.3333 93.9375 77.3333ZM84.3125 81.3333H82.25C81.8375 81.3333 81.5625 81.0667 81.5625 80.6667V79.3333C81.5625 78.9333 81.8375 78.6667 82.25 78.6667H84.3125C84.725 78.6667 85 78.9333 85 79.3333V80.6667C85 81.0667 84.725 81.3333 84.3125 81.3333ZM89.125 81.3333H87.0625C86.65 81.3333 86.375 81.0667 86.375 80.6667V79.3333C86.375 78.9333 86.65 78.6667 87.0625 78.6667H89.125C89.5375 78.6667 89.8125 78.9333 89.8125 79.3333V80.6667C89.8125 81.0667 89.5375 81.3333 89.125 81.3333ZM93.9375 81.3333H91.875C91.4625 81.3333 91.1875 81.0667 91.1875 80.6667V79.3333C91.1875 78.9333 91.4625 78.6667 91.875 78.6667H93.9375C94.35 78.6667 94.625 78.9333 94.625 79.3333V80.6667C94.625 81.0667 94.35 81.3333 93.9375 81.3333ZM84.3125 85.3333H82.25C81.8375 85.3333 81.5625 85.0667 81.5625 84.6667V83.3333C81.5625 82.9333 81.8375 82.6667 82.25 82.6667H84.3125C84.725 82.6667 85 82.9333 85 83.3333V84.6667C85 85.0667 84.725 85.3333 84.3125 85.3333ZM89.125 85.3333H87.0625C86.65 85.3333 86.375 85.0667 86.375 84.6667V83.3333C86.375 82.9333 86.65 82.6667 87.0625 82.6667H89.125C89.5375 82.6667 89.8125 82.9333 89.8125 83.3333V84.6667C89.8125 85.0667 89.5375 85.3333 89.125 85.3333ZM93.9375 85.3333H91.875C91.4625 85.3333 91.1875 85.0667 91.1875 84.6667V83.3333C91.1875 82.9333 91.4625 82.6667 91.875 82.6667H93.9375C94.35 82.6667 94.625 82.9333 94.625 83.3333V84.6667C94.625 85.0667 94.35 85.3333 93.9375 85.3333ZM84.3125 89.3333H82.25C81.8375 89.3333 81.5625 89.0667 81.5625 88.6667V87.3333C81.5625 86.9333 81.8375 86.6667 82.25 86.6667H84.3125C84.725 86.6667 85 86.9333 85 87.3333V88.6667C85 89.0667 84.725 89.3333 84.3125 89.3333ZM89.125 89.3333H87.0625C86.65 89.3333 86.375 89.0667 86.375 88.6667V87.3333C86.375 86.9333 86.65 86.6667 87.0625 86.6667H89.125C89.5375 86.6667 89.8125 86.9333 89.8125 87.3333V88.6667C89.8125 89.0667 89.5375 89.3333 89.125 89.3333ZM93.9375 89.3333H91.875C91.4625 89.3333 91.1875 89.0667 91.1875 88.6667V87.3333C91.1875 86.9333 91.4625 86.6667 91.875 86.6667H93.9375C94.35 86.6667 94.625 86.9333 94.625 87.3333V88.6667C94.625 89.0667 94.35 89.3333 93.9375 89.3333Z" fill="#30463D"/>
<path d="M98.75 81.3333H96.6875C96.275 81.3333 96 81.0667 96 80.6667V79.3333C96 78.9333 96.275 78.6667 96.6875 78.6667H98.75C99.1625 78.6667 99.4375 78.9333 99.4375 79.3333V80.6667C99.4375 81.0667 99.1625 81.3333 98.75 81.3333ZM98.75 85.3333H96.6875C96.275 85.3333 96 85.0667 96 84.6667V83.3333C96 82.9333 96.275 82.6667 96.6875 82.6667H98.75C99.1625 82.6667 99.4375 82.9333 99.4375 83.3333V84.6667C99.4375 85.0667 99.1625 85.3333 98.75 85.3333ZM98.75 89.3333H96.6875C96.275 89.3333 96 89.0667 96 88.6667V87.3333C96 86.9333 96.275 86.6667 96.6875 86.6667H98.75C99.1625 86.6667 99.4375 86.9333 99.4375 87.3333V88.6667C99.4375 89.0667 99.1625 89.3333 98.75 89.3333Z" fill="#2E463E"/>
<line x1="152.563" y1="76.2428" x2="142.563" y2="58.2428" stroke="black"/>
<line x1="78.4772" y1="55.1491" x2="73.4772" y2="71.1491" stroke="black"/>
<path d="M8.66667 133.34H29.6667M20.3333 133.34L4 116.741L23.8333 105.33" stroke="black" stroke-width="2" stroke-linecap="round" stroke-linejoin="round"/>
<path d="M27.3333 118.816C22.3213 114.359 22.3213 106.674 27.3333 102.217C32.2053 97.885 40.9647 98.1257 46 102.217L27.3333 118.816Z" stroke="black" stroke-width="2" stroke-linecap="round" stroke-linejoin="round"/>
<path d="M24.398 105.483L21.7007 103.085C20.8254 102.306 20.3335 101.251 20.3333 100.15C20.333 99.0499 20.8245 97.9943 21.6995 97.216C22.5746 96.4376 23.7615 96.0002 24.9992 96C26.2369 95.9998 27.424 96.4368 28.2994 97.2149L30.9687 99.5885M33.1667 114.656L33.652 115.224C34.7561 116.196 36.247 116.742 37.8007 116.742C39.3544 116.742 40.8453 116.196 41.9494 115.224C44.1404 113.289 44.236 110.203 42.234 108.17L41.38 107.404" stroke="black" stroke-width="2" stroke-linecap="round" stroke-linejoin="round"/>
<path d="M98.75 153.5V180.5H121.25V153.5H98.75ZM97.625 151.25H122.375C122.673 151.25 122.96 151.369 123.17 151.58C123.381 151.79 123.5 152.077 123.5 152.375V181.625C123.5 181.923 123.381 182.21 123.17 182.42C122.96 182.631 122.673 182.75 122.375 182.75H97.625C97.3266 182.75 97.0405 182.631 96.8295 182.42C96.6185 182.21 96.5 181.923 96.5 181.625V152.375C96.5 152.077 96.6185 151.79 96.8295 151.58C97.0405 151.369 97.3266 151.25 97.625 151.25Z" fill="black"/>
<path d="M115.625 153.5H117.875V180.5H115.625V153.5ZM95.375 155.75H99.875C100.625 155.75 101 156.125 101 156.875C101 157.625 100.625 158 99.875 158H95.375C94.625 158 94.25 157.625 94.25 156.875C94.25 156.125 94.625 155.75 95.375 155.75ZM95.375 162.5H99.875C100.625 162.5 101 162.875 101 163.625C101 164.375 100.625 164.75 99.875 164.75H95.375C94.625 164.75 94.25 164.375 94.25 163.625C94.25 162.875 94.625 162.5 95.375 162.5ZM95.375 169.25H99.875C100.625 169.25 101 169.625 101 170.375C101 171.125 100.625 171.5 99.875 171.5H95.375C94.625 171.5 94.25 171.125 94.25 170.375C94.25 169.625 94.625 169.25 95.375 169.25ZM95.375 176H99.875C100.625 176 101 176.375 101 177.125C101 177.875 100.625 178.25 99.875 178.25H95.375C94.625 178.25 94.25 177.875 94.25 177.125C94.25 176.375 94.625 176 95.375 176Z" fill="black"/>
<path d="M55.5834 192.75L54.0417 189.583H50.9584L49.4167 192.75L41.7084 197.5H44.7917L46.3334 210.167L49.4167 213.333L50.1875 214.917H47.875V224.417H57.125V214.917H54.8125L55.5834 213.333L58.6667 210.167L60.2084 197.5H63.2917L55.5834 192.75ZM55.83 208.583H49.17L47.875 197.5H57.125L55.83 208.583Z" fill="black"/>
<path d="M138.904 156.168C138.408 156.168 137.992 156 137.656 155.664C137.32 155.328 137.152 154.912 137.152 154.416C137.152 153.92 137.32 153.504 137.656 153.168C137.992 152.832 138.408 152.664 138.904 152.664C139.384 152.664 139.792 152.832 140.128 153.168C140.464 153.504 140.632 153.92 140.632 154.416C140.632 154.912 140.464 155.328 140.128 155.664C139.792 156 139.384 156.168 138.904 156.168Z" fill="black"/>
<path d="M120.422 25.9614C120.422 25.7453 120.333 25.538 120.176 25.3851C120.019 25.2323 119.805 25.1465 119.583 25.1465C119.36 25.1465 119.147 25.2323 118.99 25.3851C118.833 25.538 118.744 25.7453 118.744 25.9614V31.4411L116.347 35.3203C116.233 35.5057 116.199 35.7278 116.253 35.9377C116.307 36.1475 116.444 36.3279 116.635 36.4392C116.826 36.5505 117.054 36.5836 117.27 36.5312C117.486 36.4788 117.672 36.3451 117.786 36.1597L120.302 32.0849C120.38 31.9584 120.422 31.8136 120.422 31.6661V25.9614Z" fill="black"/>
<path d="M117.067 16.9969C116.844 16.9969 116.631 17.0828 116.474 17.2356C116.317 17.3885 116.228 17.5958 116.228 17.8119C116.228 18.028 116.317 18.2353 116.474 18.3882C116.631 18.541 116.844 18.6268 117.067 18.6268H117.906V20.3708C115.621 20.6915 113.485 21.659 111.764 23.1525C110.042 24.6461 108.812 26.5994 108.226 28.7685C107.64 30.9376 107.725 33.2263 108.47 35.3487C109.216 37.4711 110.588 39.3332 112.416 40.7022L111.406 41.6834C111.248 41.8362 111.16 42.0436 111.16 42.2598C111.159 42.4761 111.248 42.6836 111.405 42.8366C111.562 42.9896 111.776 43.0757 111.998 43.0758C112.221 43.076 112.434 42.9902 112.592 42.8374L113.843 41.6215C115.596 42.5775 117.573 43.0783 119.583 43.0754C121.593 43.0783 123.57 42.5775 125.323 41.6215L126.574 42.8374C126.732 42.9902 126.945 43.076 127.168 43.0758C127.39 43.0757 127.604 42.9896 127.761 42.8366C127.918 42.6836 128.006 42.4761 128.006 42.2598C128.006 42.0436 127.917 41.8362 127.76 41.6834L126.752 40.7022C128.58 39.3331 129.952 37.4709 130.697 35.3484C131.442 33.2258 131.527 30.937 130.941 28.7679C130.355 26.5987 129.124 24.6454 127.403 23.152C125.681 21.6586 123.544 20.6912 121.26 20.3708V18.6268H122.099C122.321 18.6268 122.535 18.541 122.692 18.3882C122.849 18.2353 122.938 18.028 122.938 17.8119C122.938 17.5958 122.849 17.3885 122.692 17.2356C122.535 17.0828 122.321 16.9969 122.099 16.9969H117.067ZM118.808 21.916C119.324 21.8779 119.842 21.8779 120.358 21.916C122.952 22.1107 125.368 23.2742 127.099 25.1623C128.829 27.0505 129.74 29.5166 129.64 32.0432C129.539 34.5697 128.436 36.9603 126.561 38.7134C124.686 40.4665 122.185 41.4458 119.583 41.4458C116.981 41.4458 114.48 40.4665 112.605 38.7134C110.73 36.9603 109.626 34.5697 109.526 32.0432C109.426 29.5166 110.337 27.0505 112.067 25.1623C113.798 23.2742 116.214 22.1107 118.808 21.916V21.916ZM106.164 22.7016C106.164 23.9289 106.723 25.0307 107.607 25.7772C108.901 23.2997 110.973 21.2864 113.523 20.0286C112.962 19.4019 112.218 18.9566 111.39 18.7521C110.562 18.5477 109.689 18.5939 108.889 18.8846C108.089 19.1754 107.399 19.6967 106.912 20.3788C106.425 21.061 106.164 21.8714 106.164 22.7016V22.7016ZM128.808 18.6268C127.545 18.6268 126.411 19.1696 125.643 20.0286C128.193 21.2864 130.265 23.2997 131.559 25.7772C132.204 25.2326 132.662 24.5096 132.873 23.705C133.083 22.9003 133.036 22.0524 132.736 21.2748C132.437 20.4971 131.901 19.8268 131.199 19.3536C130.497 18.8804 129.663 18.6268 128.808 18.6268V18.6268Z" fill="black"/>
<g clip-path="url(#clip0_64_128)">
<path d="M152.5 124.667L156.521 120.635M131.201 86.5802L133.823 89.2031L121.353 101.672L118.729 99.0521L131.201 86.5802ZM153.504 102.945L156.126 105.567L140.68 121.012L138.058 118.391L153.504 102.945ZM137.108 100.004L139.73 102.626L131.017 111.34L128.395 108.718L137.108 100.004ZM145.406 101.361L148.028 103.984L135.846 116.167L133.224 113.545L145.406 101.361ZM133.277 94.1865L135.9 96.8083L126.192 106.517L123.57 103.894L133.277 94.1865ZM155.354 110.75L157.271 125.417L142.885 123.219L155.354 110.75V110.75Z" stroke="black" stroke-width="2" stroke-linecap="round" stroke-linejoin="round"/>
<path d="M122.154 117.585C121.658 117.585 121.242 117.417 120.906 117.081C120.57 116.745 120.402 116.329 120.402 115.833C120.402 115.337 120.57 114.921 120.906 114.585C121.242 114.249 121.658 114.081 122.154 114.081C122.634 114.081 123.042 114.249 123.378 114.585C123.714 114.921 123.882 115.337 123.882 115.833C123.882 116.329 123.714 116.745 123.378 117.081C123.042 117.417 122.634 117.585 122.154 117.585Z" fill="black"/>
<line x1="162.402" y1="87.8407" x2="145.735" y2="77.424" stroke="black"/>
</g>
<line y1="-0.5" x2="14.1372" y2="-0.5" transform="matrix(-0.584119 0.811668 -0.805774 -0.592223 95.2578 14)" stroke="black"/>
<line x1="86.2142" y1="32.2128" x2="82.4525" y2="40.2128" stroke="black"/>
<line x1="66.9019" y1="46.4903" x2="51.9019" y2="43.4903" stroke="black"/>
<line x1="29.6705" y1="58.2281" x2="20.445" y2="76.2281" stroke="black"/>
<path d="M27.7753 82L45.9998 89" stroke="black"/>
<line x1="128.174" y1="144.752" x2="114.916" y2="142.493" stroke="black"/>
<line x1="58.4974" y1="136.949" x2="60.2113" y2="153.599" stroke="black"/>
<line y1="-0.5" x2="11.8852" y2="-0.5" transform="matrix(-0.260548 0.965461 -0.964054 -0.265708 38.0693 159.384)" stroke="black"/>
<line y1="-0.5" x2="12.6439" y2="-0.5" transform="matrix(-0.816379 0.577517 -0.569408 -0.822055 34.9404 189.117)" stroke="black"/>
<path d="M27.1805 234.11L38.0371 243.883" stroke="black"/>
<line x1="69.2857" y1="246.904" x2="58.2818" y2="254.413" stroke="black"/>
<line x1="49.5318" y1="259.176" x2="43.5318" y2="243.176" stroke="black"/>
<line y1="-0.5" x2="11.8852" y2="-0.5" transform="matrix(-0.260548 0.965461 -0.964054 -0.265708 63.0967 113)" stroke="black"/>
<line x1="64" y1="93.5" x2="49" y2="93.5" stroke="black"/>
<line x1="107.108" y1="7.48809" x2="98.1085" y2="9.48809" stroke="black"/>
<line y1="-0.5" x2="17.1188" y2="-0.5" transform="matrix(-0.904463 0.426552 -0.419236 -0.907877 138.163 52.4642)" stroke="black"/>
<path d="M134.655 10.5464L119 5.30092" stroke="black"/>
<line y1="-0.5" x2="14.9083" y2="-0.5" transform="matrix(0.415428 0.909626 -0.906267 0.422706 138 16)" stroke="black"/>
<line x1="106.256" y1="54.5703" x2="117.774" y2="61.4229" stroke="black"/>
<line y1="-0.5" x2="16.4379" y2="-0.5" transform="matrix(0.565157 0.824983 -0.819371 0.573264 67 95)" stroke="black"/>
<line y1="-0.5" x2="14.7861" y2="-0.5" transform="matrix(0.977346 0.211649 -0.207428 0.97825 87.584 102.536)" stroke="black"/>
<path d="M99 51L84 44.715" stroke="black"/>
<line y1="-0.5" x2="11.8852" y2="-0.5" transform="matrix(-0.260548 0.965461 -0.964054 -0.265708 144.356 34.7306)" stroke="black"/>
<line y1="-0.5" x2="12.6484" y2="-0.5" transform="matrix(-0.795725 0.605659 -0.597572 -0.801816 52.876 159.208)" stroke="black"/>
<line y1="-0.5" x2="12.6896" y2="-0.5" transform="matrix(-0.569408 0.822055 -0.816379 -0.577517 116.486 92.1041)" stroke="black"/>
<line y1="-0.5" x2="15.3636" y2="-0.5" transform="matrix(-0.94061 0.339489 -0.333205 -0.942854 138.163 77.4999)" stroke="black"/>
<line y1="-0.5" x2="13.2573" y2="-0.5" transform="matrix(-0.381865 -0.924218 0.921921 -0.387379 173.062 111.663)" stroke="black"/>
<line y1="-0.5" x2="12.4293" y2="-0.5" transform="matrix(-0.570225 0.821489 -0.816956 -0.5767 170.025 121.874)" stroke="black"/>
<line y1="-0.5" x2="19.0065" y2="-0.5" transform="matrix(-0.923254 0.384189 -0.377331 -0.926079 158.808 133.83)" stroke="black"/>
<line x1="134.626" y1="137.332" x2="126.626" y2="128.332" stroke="black"/>
<line x1="119.653" y1="122.147" x2="111.63" y2="113.337" stroke="black"/>
<line x1="92.6977" y1="147.194" x2="102.698" y2="139.602" stroke="black"/>
<line y1="-0.5" x2="12.6896" y2="-0.5" transform="matrix(-0.569408 0.822055 -0.816379 -0.577517 85.5195 153.65)" stroke="black"/>
<line x1="90" y1="195.5" x2="103" y2="195.5" stroke="black"/>
<line y1="-0.5" x2="12.6849" y2="-0.5" transform="matrix(0.599305 0.800521 -0.794405 0.607389 75.1973 177.643)" stroke="black"/>
<line y1="-0.5" x2="12.6896" y2="-0.5" transform="matrix(-0.569408 0.822055 -0.816379 -0.577517 84.2256 210)" stroke="black"/>
<line y1="-0.5" x2="12.6896" y2="-0.5" transform="matrix(-0.569408 0.822055 -0.816379 -0.577517 76.2295 228.757)" stroke="black"/>
<line y1="-0.5" x2="17.8025" y2="-0.5" transform="matrix(0.347892 0.937535 -0.935103 0.354377 7 67)" stroke="black"/>
<line y1="-0.5" x2="13.5601" y2="-0.5" transform="matrix(-0.532853 -0.846208 0.841085 -0.540904 76.2295 8.65173)" stroke="black"/>
<line x1="45.2774" y1="41.416" x2="33.2774" y2="49.416" stroke="black"/>
<line x1="127" y1="193.5" x2="114" y2="193.5" stroke="black"/>
<line x1="48.7931" y1="149.455" x2="37.7931" y2="144.455" stroke="black"/>
<line x1="8.16332" y1="141.679" x2="23.0606" y2="143.504" stroke="black"/>
<line x1="43.4044" y1="275.294" x2="35.4044" y2="286.294" stroke="black"/>
<line x1="150.48" y1="142.139" x2="144.48" y2="162.873" stroke="black"/>
<line y1="-0.5" x2="21.8891" y2="-0.5" transform="matrix(-0.424412 0.905469 -0.90198 -0.431778 139.195 168.254)" stroke="black"/>
<line y1="-0.5" x2="18.6695" y2="-0.5" transform="matrix(-0.829338 0.558747 -0.550657 -0.834732 126.809 196.42)" stroke="black"/>
<line y1="-0.5" x2="18.5043" y2="-0.5" transform="matrix(-0.892529 0.45099 -0.443453 -0.896298 105.132 213.11)" stroke="black"/>
<path d="M22.6116 209.154L16.9998 193.464" stroke="black"/>
<path d="M95.49 130.756H94.33V137.503H81.67V126.485H88V125.125H81.67C81.5084 125.13 81.3495 125.17 81.2026 125.242C81.0557 125.314 80.9239 125.416 80.8148 125.543C80.7057 125.669 80.6217 125.818 80.5676 125.98C80.5136 126.142 80.4906 126.314 80.5 126.485V137.503C80.4946 137.672 80.5207 137.84 80.5766 137.998C80.6325 138.157 80.7172 138.301 80.8259 138.425C80.9346 138.548 81.065 138.648 81.2099 138.717C81.3547 138.787 81.5111 138.826 81.67 138.831H94.33C94.4889 138.826 94.6453 138.787 94.7901 138.717C94.9349 138.648 95.0654 138.548 95.1741 138.425C95.2827 138.301 95.3674 138.157 95.4234 137.998C95.4793 137.84 95.5053 137.672 95.5 137.503L95.49 130.756Z" fill="black"/>
<path d="M90.56 126.049L86.22 130.671L85.78 131.139L85.7 131.224L84.18 134.581C84.078 134.797 84.0426 135.041 84.0787 135.279C84.1148 135.517 84.2207 135.737 84.3813 135.908C84.5418 136.079 84.7489 136.191 84.9731 136.23C85.1973 136.268 85.4271 136.23 85.63 136.122L88.77 134.496L89.3 133.933L89.73 133.476L94.07 128.844L94.52 128.376L94.77 128.111C95.1779 127.676 95.407 127.088 95.407 126.474C95.407 125.861 95.1779 125.272 94.77 124.838C94.3632 124.409 93.8132 124.168 93.24 124.169C92.6638 124.168 92.1105 124.408 91.7 124.838L91 125.571L90.55 126.039L90.56 126.049ZM85.51 134.688L86.69 132.106L87.94 133.444L85.51 134.688ZM87.51 131.118L91.41 126.963L92.71 128.355L88.85 132.563L87.51 131.118ZM93.19 125.476C93.3108 125.475 93.4306 125.5 93.5422 125.55C93.6538 125.599 93.755 125.671 93.84 125.763C94.0128 125.948 94.1098 126.198 94.1098 126.458C94.1098 126.719 94.0128 126.969 93.84 127.154L93.59 127.409L92.29 126.028L92.54 125.763C92.6302 125.668 92.7386 125.595 92.8577 125.55C92.9768 125.504 93.1038 125.486 93.23 125.497L93.19 125.476Z" fill="black"/>
<line y1="-0.5" x2="16.4379" y2="-0.5" transform="matrix(0.565157 0.824983 -0.819371 0.573264 60.7461 157.823)" stroke="black"/>
<path d="M145.904 185.168C145.408 185.168 144.992 185 144.656 184.664C144.32 184.328 144.152 183.912 144.152 183.416C144.152 182.92 144.32 182.504 144.656 182.168C144.992 181.832 145.408 181.664 145.904 181.664C146.384 181.664 146.792 181.832 147.128 182.168C147.464 182.504 147.632 182.92 147.632 183.416C147.632 183.912 147.464 184.328 147.128 184.664C146.792 185 146.384 185.168 145.904 185.168Z" fill="black"/>
<path d="M157.904 60.168C157.408 60.168 156.992 60 156.656 59.664C156.32 59.328 156.152 58.912 156.152 58.416C156.152 57.92 156.32 57.504 156.656 57.168C156.992 56.832 157.408 56.664 157.904 56.664C158.384 56.664 158.792 56.832 159.128 57.168C159.464 57.504 159.632 57.92 159.632 58.416C159.632 58.912 159.464 59.328 159.128 59.664C158.792 60 158.384 60.168 157.904 60.168Z" fill="black"/>
<path d="M119.904 74.168C119.408 74.168 118.992 74 118.656 73.664C118.32 73.328 118.152 72.912 118.152 72.416C118.152 71.92 118.32 71.504 118.656 71.168C118.992 70.832 119.408 70.664 119.904 70.664C120.384 70.664 120.792 70.832 121.128 71.168C121.464 71.504 121.632 71.92 121.632 72.416C121.632 72.912 121.464 73.328 121.128 73.664C120.792 74 120.384 74.168 119.904 74.168Z" fill="black"/>
<path d="M171.904 118.168C171.408 118.168 170.992 118 170.656 117.664C170.32 117.328 170.152 116.912 170.152 116.416C170.152 115.92 170.32 115.504 170.656 115.168C170.992 114.832 171.408 114.664 171.904 114.664C172.384 114.664 172.792 114.832 173.128 115.168C173.464 115.504 173.632 115.92 173.632 116.416C173.632 116.912 173.464 117.328 173.128 117.664C172.792 118 172.384 118.168 171.904 118.168Z" fill="black"/>
<path d="M110.904 139.168C110.408 139.168 109.992 139 109.656 138.664C109.32 138.328 109.152 137.912 109.152 137.416C109.152 136.92 109.32 136.504 109.656 136.168C109.992 135.832 110.408 135.664 110.904 135.664C111.384 135.664 111.792 135.832 112.128 136.168C112.464 136.504 112.632 136.92 112.632 137.416C112.632 137.912 112.464 138.328 112.128 138.664C111.792 139 111.384 139.168 110.904 139.168Z" fill="black"/>
<path d="M74.904 48.168C74.408 48.168 73.992 48 73.656 47.664C73.32 47.328 73.152 46.912 73.152 46.416C73.152 45.92 73.32 45.504 73.656 45.168C73.992 44.832 74.408 44.664 74.904 44.664C75.384 44.664 75.792 44.832 76.128 45.168C76.464 45.504 76.632 45.92 76.632 46.416C76.632 46.912 76.464 47.328 76.128 47.664C75.792 48 75.384 48.168 74.904 48.168Z" fill="black"/>
<path d="M32.904 221.168C32.408 221.168 31.992 221 31.656 220.664C31.32 220.328 31.152 219.912 31.152 219.416C31.152 218.92 31.32 218.504 31.656 218.168C31.992 217.832 32.408 217.664 32.904 217.664C33.384 217.664 33.792 217.832 34.128 218.168C34.464 218.504 34.632 218.92 34.632 219.416C34.632 219.912 34.464 220.328 34.128 220.664C33.792 221 33.384 221.168 32.904 221.168Z" fill="black"/>
<path d="M70.904 132.168C70.408 132.168 69.992 132 69.656 131.664C69.32 131.328 69.152 130.912 69.152 130.416C69.152 129.92 69.32 129.504 69.656 129.168C69.992 128.832 70.408 128.664 70.904 128.664C71.384 128.664 71.792 128.832 72.128 129.168C72.464 129.504 72.632 129.92 72.632 130.416C72.632 130.912 72.464 131.328 72.128 131.664C71.792 132 71.384 132.168 70.904 132.168Z" fill="black"/>
<path d="M95.904 117.168C95.408 117.168 94.992 117 94.656 116.664C94.32 116.328 94.152 115.912 94.152 115.416C94.152 114.92 94.32 114.504 94.656 114.168C94.992 113.832 95.408 113.664 95.904 113.664C96.384 113.664 96.792 113.832 97.128 114.168C97.464 114.504 97.632 114.92 97.632 115.416C97.632 115.912 97.464 116.328 97.128 116.664C96.792 117 96.384 117.168 95.904 117.168Z" fill="black"/>
<path d="M30.904 290.168C30.408 290.168 29.992 290 29.656 289.664C29.32 289.328 29.152 288.912 29.152 288.416C29.152 287.92 29.32 287.504 29.656 287.168C29.992 286.832 30.408 286.664 30.904 286.664C31.384 286.664 31.792 286.832 32.128 287.168C32.464 287.504 32.632 287.92 32.632 288.416C32.632 288.912 32.464 289.328 32.128 289.664C31.792 290 31.384 290.168 30.904 290.168Z" fill="black"/>
<path d="M89.904 237.168C89.408 237.168 88.992 237 88.656 236.664C88.32 236.328 88.152 235.912 88.152 235.416C88.152 234.92 88.32 234.504 88.656 234.168C88.992 233.832 89.408 233.664 89.904 233.664C90.384 233.664 90.792 233.832 91.128 234.168C91.464 234.504 91.632 234.92 91.632 235.416C91.632 235.912 91.464 236.328 91.128 236.664C90.792 237 90.384 237.168 89.904 237.168Z" fill="black"/>
<path d="M84.904 203.168C84.408 203.168 83.992 203 83.656 202.664C83.32 202.328 83.152 201.912 83.152 201.416C83.152 200.92 83.32 200.504 83.656 200.168C83.992 199.832 84.408 199.664 84.904 199.664C85.384 199.664 85.792 199.832 86.128 200.168C86.464 200.504 86.632 200.92 86.632 201.416C86.632 201.912 86.464 202.328 86.128 202.664C85.792 203 85.384 203.168 84.904 203.168Z" fill="black"/>
<path d="M11.904 51.168C11.408 51.168 10.992 51 10.656 50.664C10.32 50.328 10.152 49.912 10.152 49.416C10.152 48.92 10.32 48.504 10.656 48.168C10.992 47.832 11.408 47.664 11.904 47.664C12.384 47.664 12.792 47.832 13.128 48.168C13.464 48.504 13.632 48.92 13.632 49.416C13.632 49.912 13.464 50.328 13.128 50.664C12.792 51 12.384 51.168 11.904 51.168Z" fill="black"/>
<path d="M107.904 14.168C107.408 14.168 106.992 14 106.656 13.664C106.32 13.328 106.152 12.912 106.152 12.416C106.152 11.92 106.32 11.504 106.656 11.168C106.992 10.832 107.408 10.664 107.904 10.664C108.384 10.664 108.792 10.832 109.128 11.168C109.464 11.504 109.632 11.92 109.632 12.416C109.632 12.912 109.464 13.328 109.128 13.664C108.792 14 108.384 14.168 107.904 14.168Z" fill="black"/>
<path d="M67.904 86.168C67.408 86.168 66.992 86 66.656 85.664C66.32 85.328 66.152 84.912 66.152 84.416C66.152 83.92 66.32 83.504 66.656 83.168C66.992 82.832 67.408 82.664 67.904 82.664C68.384 82.664 68.792 82.832 69.128 83.168C69.464 83.504 69.632 83.92 69.632 84.416C69.632 84.912 69.464 85.328 69.128 85.664C68.792 86 68.384 86.168 67.904 86.168Z" fill="black"/>
<path d="M29.904 148.168C29.408 148.168 28.992 148 28.656 147.664C28.32 147.328 28.152 146.912 28.152 146.416C28.152 145.92 28.32 145.504 28.656 145.168C28.992 144.832 29.408 144.664 29.904 144.664C30.384 144.664 30.792 144.832 31.128 145.168C31.464 145.504 31.632 145.92 31.632 146.416C31.632 146.912 31.464 147.328 31.128 147.664C30.792 148 30.384 148.168 29.904 148.168Z" fill="black"/>
<path d="M9.904 239.168C9.408 239.168 8.992 239 8.656 238.664C8.32 238.328 8.152 237.912 8.152 237.416C8.152 236.92 8.32 236.504 8.656 236.168C8.992 235.832 9.408 235.664 9.904 235.664C10.384 235.664 10.792 235.832 11.128 236.168C11.464 236.504 11.632 236.92 11.632 237.416C11.632 237.912 11.464 238.328 11.128 238.664C10.792 239 10.384 239.168 9.904 239.168Z" fill="black"/>
<path d="M52.904 176.168C52.408 176.168 51.992 176 51.656 175.664C51.32 175.328 51.152 174.912 51.152 174.416C51.152 173.92 51.32 173.504 51.656 173.168C51.992 172.832 52.408 172.664 52.904 172.664C53.384 172.664 53.792 172.832 54.128 173.168C54.464 173.504 54.632 173.92 54.632 174.416C54.632 174.912 54.464 175.328 54.128 175.664C53.792 176 53.384 176.168 52.904 176.168Z" fill="black"/>
<path d="M58.904 241.168C58.408 241.168 57.992 241 57.656 240.664C57.32 240.328 57.152 239.912 57.152 239.416C57.152 238.92 57.32 238.504 57.656 238.168C57.992 237.832 58.408 237.664 58.904 237.664C59.384 237.664 59.792 237.832 60.128 238.168C60.464 238.504 60.632 238.92 60.632 239.416C60.632 239.912 60.464 240.328 60.128 240.664C59.792 241 59.384 241.168 58.904 241.168Z" fill="black"/>
<g clip-path="url(#clip1_64_128)">
<path d="M22.7981 197.809L15.9831 188.879C15.5555 188.317 14.9753 188.001 14.37 188H5.79688C5.19599 188 4.61972 188.313 4.19484 188.87C3.76995 189.426 3.53125 190.181 3.53125 190.969V223.031C3.53125 223.819 3.76995 224.574 4.19484 225.13C4.61972 225.687 5.19599 226 5.79688 226H21.2031C21.804 226 22.3803 225.687 22.8052 225.13C23.2301 224.574 23.4688 223.819 23.4688 223.031V199.875C23.4584 199.098 23.2179 198.357 22.7981 197.809V197.809ZM21.2031 223.031H5.79688V190.969H12.1044V199.875C12.0996 200.269 12.1546 200.66 12.2663 201.026C12.378 201.391 12.5441 201.724 12.755 202.005C12.9659 202.286 13.2173 202.509 13.4945 202.661C13.7718 202.813 14.0694 202.891 14.37 202.891H21.2031V223.031ZM21.2031 199.922H14.37V190.969L21.2031 199.875V199.922Z" fill="black"/>
</g>
<line y1="-0.5" x2="21.4714" y2="-0.5" transform="matrix(-0.384595 0.923086 -0.920161 -0.391539 65.2578 13)" stroke="black"/>
<path d="M49 53.0077C44.89 52.8783 40.8967 54.3852 37.8968 57.1976C34.8969 60.01 33.1357 63.8979 33 68.0077C33.1357 72.1175 34.8969 76.0054 37.8968 78.8178C40.8967 81.6302 44.89 83.1371 49 83.0077C53.11 83.1371 57.1033 81.6302 60.1032 78.8178C63.1031 76.0054 64.8643 72.1175 65 68.0077C64.8643 63.8979 63.1031 60.01 60.1032 57.1976C57.1033 54.3852 53.11 52.8783 49 53.0077V53.0077ZM62.42 66.6077L59.96 66.0077C59.46 65.8677 59.42 65.8277 59.38 65.7677C59.08 65.3677 58.74 64.8277 58.42 64.3077C58.42 64.1277 58.16 63.8477 58.1 63.6877C58.04 63.5277 58.8 62.4877 59.12 62.0077C59.4649 61.6491 59.8629 61.3455 60.3 61.1077C61.4629 62.7309 62.1926 64.6239 62.42 66.6077V66.6077ZM49 55.5077L48.82 55.8477C48.8021 55.7822 48.8021 55.7132 48.82 55.6477C48.82 55.7677 48.52 55.9477 48.32 56.1477L47.72 56.7277C47.4464 57.013 47.2807 57.3847 47.2515 57.7789C47.2223 58.1731 47.3314 58.5652 47.56 58.8877H47.32C47.0042 58.8968 46.6945 58.9771 46.414 59.1225C46.1335 59.268 45.8894 59.4748 45.7 59.7277C45.4789 60.0325 45.3283 60.3826 45.2591 60.7527C45.1899 61.1228 45.2039 61.5036 45.3 61.8677V62.0077C45.0083 62.0597 44.7208 62.1332 44.44 62.2277L43.96 62.3877L42.68 62.8077C42.2986 62.9194 41.9509 63.1241 41.6682 63.4034C41.3854 63.6826 41.1764 64.0277 41.06 64.4077C40.967 64.7266 40.9548 65.0636 41.0247 65.3883C41.0945 65.713 41.2441 66.0153 41.46 66.2677C42.261 67.1335 43.1922 67.869 44.22 68.4477C45.226 69.118 46.3656 69.5615 47.56 69.7477H50.92C51.3246 69.7284 51.7275 69.8118 52.0912 69.9901C52.4549 70.1685 52.7675 70.436 53 70.7677C53.1088 70.8799 53.1891 71.0165 53.2344 71.1661C53.2796 71.3158 53.2884 71.474 53.26 71.6277C53.2202 71.8825 53.117 72.1232 52.96 72.3277C51.9648 73.1417 51.2914 74.283 51.06 75.5477C50.8009 76.4878 50.4802 77.4098 50.1 78.3077C49.86 78.9277 49.64 79.5277 49.48 80.0077C48.8091 80.056 48.1347 80.002 47.48 79.8477C47.6394 78.3617 47.2866 76.8659 46.48 75.6077C45.8074 74.813 45.4326 73.8088 45.42 72.7677C45.5493 71.7801 45.325 70.7786 44.787 69.9404C44.2489 69.1022 43.4317 68.4814 42.48 68.1877C40.2409 66.796 38.2752 65.0066 36.68 62.9077C37.8358 60.6453 39.603 58.7525 41.7809 57.4444C43.9587 56.1363 46.4598 55.4653 49 55.5077V55.5077ZM35.5 68.0077C35.4996 67.2281 35.58 66.4507 35.74 65.6877C37.3818 67.6528 39.376 69.2942 41.62 70.5277C42.82 70.9677 43 71.4277 43 72.7677C43.0044 74.4394 43.6156 76.0527 44.72 77.3077C45.0149 78.1752 45.1106 79.0981 45 80.0077C42.3271 79.3125 39.9536 77.7649 38.2393 75.5995C36.525 73.4341 35.5633 70.7688 35.5 68.0077V68.0077ZM52.14 80.1677C52.14 79.8677 52.38 79.5277 52.5 79.2077C52.9547 78.1733 53.3226 77.103 53.6 76.0077C53.7566 75.3294 54.1371 74.7235 54.68 74.2877C55.3799 73.5997 55.7881 72.6686 55.82 71.6877C55.8445 71.2226 55.7738 70.7574 55.6121 70.3207C55.4505 69.8839 55.2014 69.4848 54.88 69.1477C54.3989 68.5575 53.787 68.0876 53.0927 67.7751C52.3983 67.4627 51.6407 67.3163 50.88 67.3477H47.7C46.2063 66.9431 44.8335 66.1812 43.7 65.1277L44.64 64.8077L45.18 64.6477C45.4178 64.5388 45.679 64.4907 45.94 64.5077L46.12 64.8077C46.2697 65.0884 46.5185 65.3033 46.818 65.4105C47.1175 65.5177 47.4462 65.5096 47.74 65.3877C48.0309 65.252 48.2613 65.0135 48.3868 64.7181C48.5123 64.4227 48.5242 64.0913 48.42 63.7877V63.4277C48.2 62.8277 47.94 61.9877 47.78 61.4277C48.2988 61.4495 48.8136 61.3286 49.2684 61.0782C49.7233 60.8279 50.1008 60.4576 50.36 60.0077C50.4842 59.6726 50.5163 59.3103 50.4529 58.9586C50.3896 58.6068 50.2332 58.2785 50 58.0077C50.2354 57.7965 50.4559 57.5693 50.66 57.3277C50.8436 57.108 50.9779 56.8515 51.0538 56.5755C51.1297 56.2995 51.1454 56.0103 51.1 55.7277C53.8955 56.1392 56.4984 57.3953 58.56 59.3277C57.9547 59.6973 57.4198 60.1713 56.98 60.7277C56.5035 61.424 56.0758 62.1524 55.7 62.9077C55.5387 63.3739 55.4981 63.8734 55.582 64.3595C55.6659 64.8456 55.8717 65.3026 56.18 65.6877C56.54 66.3077 56.94 66.9077 57.3 67.4077C57.7962 68.0331 58.5107 68.4476 59.3 68.5677C59.74 68.6877 61.3 69.0077 62.4 69.2277C62.0463 71.8942 60.8667 74.3831 59.0266 76.3451C57.1866 78.3072 54.7784 79.6439 52.14 80.1677V80.1677Z" fill="black"/>
<g clip-path="url(#clip2_64_128)">
<path d="M107 -29.0913C103.957 -29.1875 100.999 -28.0747 98.7736 -25.9963C96.5483 -23.9179 95.2365 -21.0429 95.125 -18C95.2365 -14.9571 96.5483 -12.0821 98.7736 -10.0037C100.999 -7.92529 103.957 -6.81253 107 -6.90875C110.043 -6.81253 113.001 -7.92529 115.226 -10.0037C117.452 -12.0821 118.764 -14.9571 118.875 -18C118.764 -21.0429 117.452 -23.9179 115.226 -25.9963C113.001 -28.0747 110.043 -29.1875 107 -29.0913ZM107 -9.8775C104.744 -9.78068 102.541 -10.5805 100.872 -12.1023C99.2034 -13.6241 98.2046 -15.7443 98.0938 -18C98.2046 -20.2557 99.2034 -22.3759 100.872 -23.8977C102.541 -25.4195 104.744 -26.2193 107 -26.1225C109.256 -26.2193 111.459 -25.4195 113.128 -23.8977C114.797 -22.3759 115.795 -20.2557 115.906 -18C115.795 -15.7443 114.797 -13.6241 113.128 -12.1023C111.459 -10.5805 109.256 -9.78068 107 -9.8775V-9.8775ZM105.409 -37H108.377V-32.25H105.409V-37ZM105.409 -3.75H108.377V1H105.409V-3.75ZM121.25 -19.5913H126V-16.6225H121.25V-19.5913ZM88 -19.5913H92.75V-16.6225H88V-19.5913ZM116.31 -31.3H121.06V-28.3312H116.31V-31.3ZM92.7975 -7.7875H97.5475V-4.81875H92.7975V-7.7875ZM117.331 -8.69H120.3V-3.94H117.331V-8.69ZM93.8188 -32.2025H96.7875V-27.4525H93.8188V-32.2025Z" fill="black"/>
</g>
<path d="M39.4375 8.82833H30.4944L29.4694 4.78145C29.3341 4.26408 29.0054 3.80455 28.5387 3.48024C28.072 3.15592 27.4957 2.98662 26.9069 3.00083H16.375C15.7862 2.98662 15.2099 3.15592 14.7432 3.48024C14.2764 3.80455 13.9478 4.26408 13.8125 4.78145L12.7875 8.78208H3.5625C2.88288 8.78208 2.2311 9.02571 1.75054 9.45939C1.26998 9.89307 1 10.4813 1 11.0946L1 31.9071C1 32.5204 1.26998 33.1086 1.75054 33.5423C2.2311 33.9759 2.88288 34.2196 3.5625 34.2196H39.4375C40.1171 34.2196 40.7689 33.9759 41.2495 33.5423C41.73 33.1086 42 32.5204 42 31.9071V11.0946C41.9866 10.4893 41.7107 9.91293 41.2316 9.48921C40.7525 9.06548 40.1083 8.82821 39.4375 8.82833ZM16.8106 5.9377H26.4456L27.1888 8.82833H16.0675L16.8106 5.9377ZM38.7969 11.719V17.5002H4.20312V11.719H38.7969ZM4.20312 31.3752V20.3908H16.375V20.969C16.375 21.5823 16.645 22.1705 17.1255 22.6041C17.6061 23.0378 18.2579 23.2815 18.9375 23.2815H24.0625C24.7421 23.2815 25.3939 23.0378 25.8745 22.6041C26.355 22.1705 26.625 21.5823 26.625 20.969V20.3908H38.7969V31.3752H4.20312Z" fill="black"/>
<g clip-path="url(#clip3_64_128)">
<path d="M179.469 -17.56C175.174 -17.5398 171.054 -15.8607 167.969 -12.8738C166.011 -13.6967 163.88 -14.0227 161.765 -13.8228C159.651 -13.6229 157.619 -12.9032 155.85 -11.7279C154.081 -10.5526 152.63 -8.95809 151.627 -7.08637C150.623 -5.21465 150.098 -3.1238 150.098 -1C150.098 1.1238 150.623 3.21465 151.627 5.08637C152.63 6.95809 154.081 8.55259 155.85 9.72792C157.619 10.9032 159.651 11.6229 161.765 11.8228C163.88 12.0227 166.011 11.6967 167.969 10.8737C169.916 12.7664 172.298 14.1514 174.906 14.9065C177.514 15.6617 180.268 15.764 182.925 15.2044C185.582 14.6448 188.061 13.4404 190.142 11.6974C192.224 9.95439 193.846 7.72617 194.864 5.20901C195.882 2.69184 196.265 -0.0370424 195.981 -2.73731C195.696 -5.43758 194.751 -8.02638 193.23 -10.2757C191.71 -12.5251 189.659 -14.3659 187.259 -15.6362C184.859 -16.9064 182.184 -17.5671 179.469 -17.56V-17.56ZM179.469 11.88C176.05 11.88 172.771 10.5239 170.351 8.10928C167.931 5.69464 166.568 2.41863 166.56 -1H162.88C162.88 2.12501 163.767 5.18578 165.439 7.82625C164.616 8.06479 163.765 8.19053 162.909 8.2C160.469 8.2 158.129 7.23072 156.403 5.50538C154.678 3.78005 153.709 1.43999 153.709 -1C153.709 -3.43999 154.678 -5.78005 156.403 -7.50538C158.129 -9.23072 160.469 -10.2 162.909 -10.2C165.349 -10.2 167.689 -9.23072 169.414 -7.50538C171.139 -5.78005 172.109 -3.43999 172.109 -1H175.875C175.876 -2.88865 175.456 -4.75374 174.645 -6.45957C173.834 -8.1654 172.654 -9.66909 171.189 -10.8613C172.774 -12.1936 174.658 -13.1239 176.68 -13.5733C178.702 -14.0226 180.802 -13.9777 182.803 -13.4424C184.804 -12.9071 186.646 -11.8972 188.174 -10.4983C189.701 -9.09938 190.868 -7.35277 191.577 -5.40656C192.286 -3.46036 192.514 -1.37198 192.244 0.681486C191.974 2.73495 191.212 4.69292 190.024 6.38935C188.836 8.08577 187.256 9.47063 185.418 10.4265C183.581 11.3823 181.54 11.8809 179.469 11.88V11.88Z" fill="black"/>
</g>
<line y1="-0.5" x2="18.1973" y2="-0.5" transform="matrix(-0.510515 0.859869 -0.855087 -0.518485 160.29 20)" stroke="black"/>
<line y1="-0.5" x2="18.1973" y2="-0.5" transform="matrix(-0.510515 0.859869 -0.855087 -0.518485 170.29 21)" stroke="black"/>
<line y1="-0.5" x2="18.1973" y2="-0.5" transform="matrix(-0.510515 0.859869 -0.855087 -0.518485 180.29 24)" stroke="black"/>
<path d="M31.755 158.656H-5.755C-7.5425 158.656 -9 159.219 -9 159.91V162.587C-9 163.278 -7.5425 163.841 -5.755 163.841H31.755C33.5425 163.841 35 163.278 35 162.587V159.91C35 159.219 33.5425 158.656 31.755 158.656ZM31.5625 162.502H-5.5625V159.984H31.5625V162.502ZM31.755 165.159H-5.755C-7.5425 165.159 -9 165.722 -9 166.413V169.09C-9 169.781 -7.5425 170.344 -5.755 170.344H31.755C33.5425 170.344 35 169.781 35 169.09V166.413C35 165.722 33.5425 165.159 31.755 165.159ZM31.5625 169.016H-5.5625V166.487H31.5625V169.016Z" fill="black"/>
<path d="M36.9999 263.397C37.0046 262.267 36.7023 261.156 36.1237 260.177C35.5451 259.197 34.7108 258.384 33.7052 257.819C33.73 257.542 33.73 257.263 33.7052 256.986C33.7052 255.71 33.1845 254.487 32.2577 253.585C31.3308 252.684 30.0738 252.177 28.763 252.177H28.4665C28.1922 251.437 27.7354 250.774 27.1363 250.246C26.5372 249.717 25.814 249.34 25.0302 249.147C24.2464 248.954 23.4258 248.951 22.6406 249.138C21.8553 249.326 21.1292 249.698 20.5261 250.222C19.923 249.698 19.1969 249.326 18.4116 249.138C17.6264 248.951 16.8058 248.954 16.022 249.147C15.2382 249.34 14.515 249.717 13.9159 250.246C13.3168 250.774 12.86 251.437 12.5857 252.177H12.2892C10.9784 252.177 9.72138 252.684 8.79455 253.585C7.86772 254.487 7.34703 255.71 7.34703 256.986C7.32223 257.263 7.32223 257.542 7.34703 257.819C6.41207 258.333 5.62045 259.062 5.04108 259.942C4.46171 260.822 4.11215 261.826 4.02283 262.867C3.93351 263.909 4.10713 264.956 4.52858 265.917C4.95004 266.878 5.60655 267.724 6.44096 268.382C5.90107 269.362 5.63229 270.461 5.661 271.573C5.68972 272.684 6.01494 273.769 6.60475 274.721C7.19456 275.673 8.02869 276.46 9.02527 277.004C10.0218 277.548 11.1466 277.83 12.2892 277.823H12.5857C12.86 278.563 13.3168 279.226 13.9159 279.754C14.515 280.283 15.2382 280.66 16.022 280.853C16.8058 281.046 17.6264 281.049 18.4116 280.862C19.1969 280.674 19.923 280.302 20.5261 279.778C21.1292 280.302 21.8553 280.674 22.6406 280.862C23.4258 281.049 24.2464 281.046 25.0302 280.853C25.814 280.66 26.5372 280.283 27.1363 279.754C27.7354 279.226 28.1922 278.563 28.4665 277.823H28.763C29.8986 277.816 31.0131 277.524 31.9983 276.974C32.9836 276.425 33.8061 275.637 34.3862 274.687C34.9664 273.737 35.2843 272.657 35.3093 271.553C35.3343 270.448 35.0655 269.356 34.5289 268.382C35.2973 267.783 35.9181 267.025 36.3457 266.162C36.7733 265.3 36.9969 264.355 36.9999 263.397ZM18.8787 259.47C18.5199 259.27 18.1453 259.099 17.7585 258.957C17.3434 258.821 16.8898 258.851 16.4975 259.041C16.1051 259.23 15.8061 259.563 15.6663 259.967C15.5265 260.371 15.5573 260.812 15.7519 261.194C15.9466 261.576 16.2891 261.867 16.7042 262.003C17.3383 262.226 17.8869 262.633 18.2757 263.169C18.6646 263.705 18.8751 264.344 18.8787 265V267.484C18.5199 267.285 18.1453 267.113 17.7585 266.972C17.3434 266.835 16.8898 266.865 16.4975 267.055C16.1051 267.244 15.8061 267.577 15.6663 267.981C15.5265 268.385 15.5573 268.827 15.7519 269.208C15.9466 269.59 16.2891 269.881 16.7042 270.017C17.3383 270.24 18.0073 269.481 18.3962 270.017C18.7851 270.553 18.8751 272.358 18.8787 273.014V276.22C18.8787 276.645 18.7052 277.053 18.3962 277.353C18.0873 277.654 17.6682 277.823 17.2313 277.823C16.9126 277.821 16.6014 277.729 16.3353 277.558C16.0692 277.388 15.8597 277.145 15.7322 276.861C16.0084 276.704 16.2727 276.527 16.523 276.332C16.6895 276.198 16.8272 276.032 16.9281 275.846C17.029 275.659 17.0912 275.455 17.1111 275.245C17.131 275.036 17.1082 274.824 17.044 274.623C16.9799 274.421 16.8756 274.234 16.7371 274.072C16.5987 273.91 16.4288 273.776 16.2371 273.678C16.0454 273.58 15.8358 273.519 15.6201 273.5C15.4044 273.481 15.1869 273.503 14.98 273.565C14.7731 273.628 14.5809 273.729 14.4143 273.864C13.8195 274.351 13.0667 274.618 12.2892 274.617C11.4154 274.617 10.5773 274.279 9.95943 273.678C9.34154 273.077 8.99441 272.262 8.99441 271.411C9.00229 270.808 9.18502 270.219 9.52157 269.712C9.89128 269.777 10.2662 269.809 10.6418 269.809C11.0787 269.809 11.4977 269.64 11.8067 269.339C12.1156 269.039 12.2892 268.631 12.2892 268.206C12.2892 267.781 12.1156 267.373 11.8067 267.072C11.4977 266.772 11.0787 266.603 10.6418 266.603C10.2527 266.605 9.86674 266.534 9.5051 266.394C8.91261 266.187 8.39378 265.818 8.01008 265.332C7.62638 264.846 7.39389 264.263 7.34015 263.652C7.28641 263.042 7.41367 262.429 7.70686 261.887C8.00005 261.344 8.44688 260.895 8.99441 260.592C9.2285 260.802 9.4822 260.989 9.75221 261.153C10.1323 261.366 10.5837 261.423 11.0069 261.311C11.4302 261.2 11.7907 260.93 12.0091 260.56C12.2276 260.19 12.2861 259.751 12.1718 259.339C12.0575 258.927 11.7797 258.577 11.3996 258.364C11.1677 258.24 10.9743 258.057 10.8395 257.835C10.6872 257.578 10.6183 257.282 10.6418 256.986C10.6418 256.561 10.8154 256.153 11.1243 255.852C11.4332 255.552 11.8523 255.383 12.2892 255.383C12.4039 255.367 12.5204 255.367 12.6351 255.383C12.7223 255.64 12.8269 255.892 12.9481 256.136C13.0558 256.32 13.1997 256.481 13.3716 256.61C13.5435 256.74 13.74 256.835 13.9497 256.89C14.1595 256.945 14.3784 256.959 14.5939 256.931C14.8093 256.904 15.017 256.835 15.2051 256.729C15.5703 256.515 15.8361 256.172 15.9467 255.772C16.0573 255.371 16.004 254.944 15.7981 254.581C15.6599 254.335 15.5863 254.06 15.5839 253.78C15.5839 253.355 15.7575 252.947 16.0665 252.647C16.3754 252.346 16.7944 252.177 17.2313 252.177C17.6682 252.177 18.0873 252.346 18.3962 252.647C18.7052 252.947 18.8787 253.355 18.8787 253.78V259.47ZM31.5471 266.394C31.1855 266.534 30.7995 266.605 30.4104 266.603C29.9735 266.603 29.5545 266.772 29.2455 267.072C28.9366 267.373 28.763 267.781 28.763 268.206C28.763 268.631 28.9366 269.039 29.2455 269.339C29.5545 269.64 29.9735 269.809 30.4104 269.809C30.786 269.809 31.1609 269.777 31.5306 269.712C31.8672 270.219 32.0499 270.808 32.0578 271.411C32.0578 272.262 31.7107 273.077 31.0928 273.678C30.4749 274.279 29.6369 274.617 28.763 274.617C27.9855 274.618 27.2327 274.351 26.6379 273.864C26.3015 273.592 25.8678 273.461 25.4321 273.5C24.9965 273.539 24.5947 273.745 24.3151 274.072C24.0355 274.4 23.9009 274.822 23.9411 275.245C23.9813 275.669 24.1928 276.06 24.5292 276.332C24.7795 276.527 25.0438 276.704 25.32 276.861C25.1925 277.145 24.983 277.388 24.7169 277.558C24.4509 277.729 24.1396 277.821 23.8209 277.823C23.384 277.823 22.9649 277.654 22.656 277.353C22.3471 277.053 22.1735 276.645 22.1735 276.22V273.014C22.1772 272.358 22.3876 271.719 22.7765 271.183C23.1654 270.647 23.7139 270.24 24.348 270.017C24.7631 269.881 25.1056 269.59 25.3003 269.208C25.4949 268.827 25.5257 268.385 25.3859 267.981C25.2461 267.577 24.9471 267.244 24.5547 267.055C24.1624 266.865 23.7088 266.835 23.2937 266.972C22.9069 267.113 22.5323 267.285 22.1735 267.484V265C22.1772 264.344 22.3876 263.705 22.7765 263.169C23.1654 262.633 23.7139 262.226 24.348 262.003C24.5536 261.935 24.7434 261.829 24.9068 261.69C25.0702 261.552 25.2039 261.383 25.3003 261.194C25.3966 261.005 25.4538 260.799 25.4685 260.589C25.4832 260.378 25.4551 260.167 25.3859 259.967C25.3167 259.767 25.2076 259.582 25.065 259.423C24.9224 259.264 24.749 259.134 24.5547 259.041C24.3605 258.947 24.1491 258.891 23.9327 258.877C23.7164 258.863 23.4992 258.89 23.2937 258.957C22.9069 259.099 22.5323 259.27 22.1735 259.47V253.78C22.1735 253.355 22.3471 252.947 22.656 252.647C22.9649 252.346 23.384 252.177 23.8209 252.177C24.2578 252.177 24.6768 252.346 24.9857 252.647C25.2947 252.947 25.4683 253.355 25.4683 253.78C25.4659 254.06 25.3923 254.335 25.2541 254.581C25.1445 254.763 25.0729 254.965 25.0434 255.174C25.0139 255.383 25.027 255.595 25.0821 255.799C25.1372 256.003 25.2332 256.195 25.3644 256.362C25.4957 256.53 25.6598 256.671 25.8472 256.777C26.0352 256.883 26.2429 256.952 26.4583 256.98C26.6738 257.007 26.8927 256.993 27.1025 256.938C27.3122 256.883 27.5087 256.788 27.6806 256.658C27.8525 256.529 27.9964 256.368 28.1041 256.184C28.2274 255.924 28.332 255.657 28.4171 255.383C28.5318 255.367 28.6483 255.367 28.763 255.383C29.1999 255.383 29.619 255.552 29.9279 255.852C30.2368 256.153 30.4104 256.561 30.4104 256.986C30.4079 257.3 30.3105 257.606 30.1304 257.867C29.9956 258.075 29.8085 258.246 29.5867 258.364C29.2066 258.577 28.9288 258.927 28.8145 259.339C28.7002 259.751 28.7587 260.19 28.9772 260.56C29.1956 260.93 29.5562 261.2 29.9794 261.311C30.4027 261.423 30.854 261.366 31.2341 261.153C31.5299 260.997 31.8063 260.809 32.0578 260.592C32.6072 260.89 33.0576 261.334 33.3559 261.873C33.6541 262.411 33.7878 263.022 33.741 263.632C33.6942 264.242 33.469 264.826 33.0919 265.316C32.7149 265.805 32.2017 266.18 31.613 266.394H31.5471Z" fill="black"/>
<defs>
<clipPath id="clip0_64_128">
<rect width="50" height="50" fill="white" transform="translate(113 81)"/>
</clipPath>
<clipPath id="clip1_64_128">
<rect width="29" height="38" fill="white" transform="translate(-1 188)"/>
</clipPath>
<clipPath id="clip2_64_128">
<rect width="38" height="38" fill="white" transform="translate(88 -37)"/>
</clipPath>
<clipPath id="clip3_64_128">
<rect width="46" height="46" fill="white" transform="translate(150 -24)"/>
</clipPath>
</defs>
</svg>
