<svg width="214" height="286" viewBox="0 0 214 286" fill="none" xmlns="http://www.w3.org/2000/svg">
<line x1="203.731" y1="10.6008" x2="226.712" y2="21.9539" stroke="black"/>
<path d="M126.395 210.416L104.418 209.415L103.691 225.399C103.624 226.864 104.805 228.119 106.316 228.188L122.799 228.938C124.31 229.007 125.601 227.864 125.668 226.399L126.395 210.416Z" fill="black"/>
<path d="M124.012 202.299L107.529 201.549C106.018 201.48 104.727 202.622 104.661 204.087L104.388 210.081L126.365 211.082L126.638 205.088C126.705 203.623 125.523 202.368 124.012 202.299Z" fill="black"/>
<path d="M123.709 208.959L107.226 208.208C106.814 208.19 106.551 207.911 106.569 207.511L106.721 204.181C106.739 203.782 107.026 203.528 107.438 203.547L123.921 204.297C124.333 204.316 124.596 204.594 124.577 204.994L124.426 208.324C124.408 208.724 124.121 208.977 123.709 208.959Z" fill="#2F453D"/>
<path d="M121.77 206.201L123.143 206.264L123.083 207.595L121.709 207.533L121.77 206.201ZM119.023 206.076L120.396 206.138L120.335 207.47L118.962 207.408L119.023 206.076Z" fill="black"/>
<path d="M123.436 214.952L121.376 214.859C120.964 214.84 120.701 214.561 120.719 214.161L120.78 212.829C120.798 212.43 121.085 212.176 121.497 212.195L123.557 212.289C123.969 212.307 124.232 212.586 124.214 212.986L124.153 214.318C124.135 214.717 123.848 214.971 123.436 214.952Z" fill="black"/>
<path d="M109.013 214.296L106.953 214.202C106.541 214.183 106.278 213.905 106.297 213.505L106.357 212.173C106.375 211.773 106.662 211.519 107.074 211.538L109.135 211.632C109.547 211.651 109.809 211.93 109.791 212.329L109.731 213.661C109.712 214.061 109.425 214.315 109.013 214.296ZM113.821 214.515L111.761 214.421C111.348 214.402 111.086 214.123 111.104 213.724L111.165 212.392C111.183 211.992 111.47 211.738 111.882 211.757L113.942 211.851C114.354 211.87 114.617 212.149 114.599 212.548L114.538 213.88C114.52 214.28 114.233 214.534 113.821 214.515ZM118.628 214.734L116.568 214.64C116.156 214.621 115.893 214.342 115.912 213.943L115.972 212.611C115.99 212.211 116.277 211.957 116.689 211.976L118.75 212.07C119.162 212.088 119.424 212.367 119.406 212.767L119.346 214.099C119.327 214.499 119.041 214.752 118.628 214.734ZM108.832 218.292L106.771 218.198C106.359 218.179 106.096 217.9 106.115 217.501L106.175 216.169C106.193 215.769 106.48 215.515 106.892 215.534L108.953 215.628C109.365 215.647 109.627 215.926 109.609 216.325L109.549 217.657C109.53 218.057 109.244 218.311 108.832 218.292ZM113.639 218.511L111.579 218.417C111.167 218.398 110.904 218.119 110.922 217.72L110.983 216.388C111.001 215.988 111.288 215.734 111.7 215.753L113.76 215.847C114.172 215.866 114.435 216.144 114.417 216.544L114.356 217.876C114.338 218.276 114.051 218.529 113.639 218.511ZM118.447 218.729L116.386 218.636C115.974 218.617 115.712 218.338 115.73 217.938L115.79 216.607C115.809 216.207 116.095 215.953 116.507 215.972L118.568 216.066C118.98 216.084 119.242 216.363 119.224 216.763L119.164 218.095C119.145 218.494 118.859 218.748 118.447 218.729ZM108.65 222.288L106.589 222.194C106.177 222.175 105.915 221.896 105.933 221.497L105.993 220.165C106.012 219.765 106.298 219.511 106.711 219.53L108.771 219.624C109.183 219.643 109.446 219.921 109.427 220.321L109.367 221.653C109.349 222.053 109.062 222.306 108.65 222.288ZM113.457 222.507L111.397 222.413C110.985 222.394 110.722 222.115 110.74 221.715L110.801 220.384C110.819 219.984 111.106 219.73 111.518 219.749L113.578 219.843C113.99 219.861 114.253 220.14 114.235 220.54L114.174 221.872C114.156 222.271 113.869 222.525 113.457 222.507ZM118.265 222.725L116.204 222.632C115.792 222.613 115.53 222.334 115.548 221.934L115.608 220.602C115.627 220.203 115.913 219.949 116.326 219.968L118.386 220.061C118.798 220.08 119.061 220.359 119.042 220.759L118.982 222.091C118.964 222.49 118.677 222.744 118.265 222.725ZM108.468 226.284L106.407 226.19C105.995 226.171 105.733 225.892 105.751 225.493L105.812 224.161C105.83 223.761 106.117 223.507 106.529 223.526L108.589 223.62C109.001 223.638 109.264 223.917 109.245 224.317L109.185 225.649C109.167 226.048 108.88 226.302 108.468 226.284ZM113.275 226.502L111.215 226.409C110.803 226.39 110.54 226.111 110.558 225.711L110.619 224.379C110.637 223.98 110.924 223.726 111.336 223.745L113.397 223.838C113.809 223.857 114.071 224.136 114.053 224.536L113.992 225.868C113.974 226.267 113.687 226.521 113.275 226.502ZM118.083 226.721L116.022 226.627C115.61 226.609 115.348 226.33 115.366 225.93L115.427 224.598C115.445 224.199 115.732 223.945 116.144 223.964L118.204 224.057C118.616 224.076 118.879 224.355 118.861 224.755L118.8 226.087C118.782 226.486 118.495 226.74 118.083 226.721Z" fill="#30463D"/>
<path d="M123.254 218.948L121.194 218.855C120.782 218.836 120.519 218.557 120.537 218.157L120.598 216.825C120.616 216.426 120.903 216.172 121.315 216.191L123.375 216.284C123.787 216.303 124.05 216.582 124.032 216.982L123.971 218.314C123.953 218.713 123.666 218.967 123.254 218.948ZM123.072 222.944L121.012 222.85C120.6 222.832 120.337 222.553 120.355 222.153L120.416 220.821C120.434 220.422 120.721 220.168 121.133 220.186L123.193 220.28C123.606 220.299 123.868 220.578 123.85 220.978L123.789 222.309C123.771 222.709 123.484 222.963 123.072 222.944ZM122.89 226.94L120.83 226.846C120.418 226.828 120.155 226.549 120.173 226.149L120.234 224.817C120.252 224.417 120.539 224.164 120.951 224.182L123.012 224.276C123.424 224.295 123.686 224.574 123.668 224.973L123.607 226.305C123.589 226.705 123.302 226.959 122.89 226.94Z" fill="#2E463E"/>
<line x1="53.2363" y1="210.79" x2="61.3876" y2="229.699" stroke="black"/>
<line x1="124.843" y1="239.181" x2="131.417" y2="223.761" stroke="black"/>
<path d="M180.717 209.89L198.214 198.276M190.438 203.438L167.65 198.641L177.863 178.165" stroke="black" stroke-width="2" stroke-linecap="round" stroke-linejoin="round"/>
<path d="M188.237 187.466C181.597 186.524 177.347 180.122 179.058 173.637C180.721 167.333 188.152 162.689 194.61 163.313L188.237 187.466Z" stroke="black" stroke-width="2" stroke-linecap="round" stroke-linejoin="round"/>
<path d="M178.418 177.981L174.845 177.474C173.685 177.31 172.691 176.703 172.083 175.786C171.474 174.869 171.299 173.718 171.598 172.585C171.897 171.453 172.644 170.432 173.675 169.747C174.706 169.063 175.936 168.77 177.096 168.935L180.633 169.436M190.797 180.774L191.516 180.979C192.973 181.178 194.517 180.808 195.811 179.949C197.106 179.09 198.046 177.811 198.429 176.39C199.183 173.566 197.557 170.942 194.764 170.355L193.629 170.19" stroke="black" stroke-width="2" stroke-linecap="round" stroke-linejoin="round"/>
<g clip-path="url(#clip0_64_126)">
<path d="M114.5 139.297L117.197 112.432L94.8101 110.184L92.1122 137.049L114.5 139.297ZM115.394 141.648L90.768 139.175C90.4711 139.145 90.1982 138.999 90.0094 138.768C89.8206 138.537 89.7312 138.24 89.761 137.943L92.6838 108.839C92.7136 108.543 92.8601 108.27 93.0911 108.081C93.3221 107.892 93.6187 107.803 93.9155 107.833L118.542 110.306C118.839 110.335 119.111 110.482 119.3 110.713C119.489 110.944 119.578 111.24 119.549 111.537L116.626 140.641C116.596 140.938 116.45 141.211 116.219 141.4C115.988 141.588 115.691 141.678 115.394 141.648Z" fill="black"/>
<path d="M97.709 137.611L95.4703 137.386L98.1682 110.521L100.407 110.746L97.709 137.611ZM118.083 137.395L113.605 136.946C112.859 136.871 112.523 136.46 112.598 135.714C112.673 134.968 113.084 134.632 113.83 134.707L118.307 135.157C119.054 135.231 119.389 135.642 119.314 136.388C119.239 137.135 118.829 137.47 118.083 137.395ZM118.757 130.679L114.28 130.229C113.533 130.154 113.198 129.744 113.273 128.998C113.347 128.251 113.758 127.916 114.504 127.991L118.982 128.44C119.728 128.515 120.064 128.926 119.989 129.672C119.914 130.418 119.503 130.754 118.757 130.679ZM119.431 123.963L114.954 123.513C114.208 123.438 113.872 123.028 113.947 122.281C114.022 121.535 114.433 121.2 115.179 121.274L119.656 121.724C120.403 121.799 120.738 122.21 120.663 122.956C120.588 123.702 120.178 124.038 119.431 123.963ZM120.106 117.247L115.628 116.797C114.882 116.722 114.547 116.311 114.622 115.565C114.696 114.819 115.107 114.483 115.853 114.558L120.331 115.008C121.077 115.083 121.413 115.493 121.338 116.24C121.263 116.986 120.852 117.322 120.106 117.247Z" fill="black"/>
</g>
<path d="M170.197 76.765L168.942 73.4743L165.871 73.2012L164.055 76.2189L155.956 80.2675L159.027 80.5406L159.441 93.294L162.232 96.7213L162.859 98.3667L160.556 98.1619L159.715 107.625L168.928 108.444L169.77 98.9811L167.466 98.7763L168.374 97.2675L171.726 94.3864L174.383 81.906L177.455 82.1791L170.197 76.765ZM169.041 92.558L162.407 91.9682L162.098 80.8137L171.312 81.6329L169.041 92.558Z" fill="black"/>
<path d="M74.8131 132.63C75.3066 132.679 75.7037 132.888 76.0045 133.256C76.3052 133.624 76.4308 134.055 76.3812 134.548C76.3317 135.042 76.123 135.439 75.7551 135.74C75.3872 136.04 74.9565 136.166 74.4629 136.116C73.9853 136.068 73.5962 135.86 73.2954 135.493C72.9947 135.125 72.8691 134.694 72.9187 134.2C72.9682 133.707 73.1769 133.31 73.5448 133.009C73.9127 132.708 74.3355 132.582 74.8131 132.63Z" fill="black"/>
<path d="M82.2247 255.976C82.2222 255.76 82.1314 255.554 81.9723 255.403C81.8133 255.252 81.599 255.169 81.3765 255.171C81.1541 255.174 80.9418 255.262 80.7864 255.417C80.6309 255.572 80.545 255.78 80.5475 255.996L80.6119 261.475L78.2606 265.382C78.1483 265.569 78.1168 265.792 78.1733 266.001C78.2297 266.21 78.3693 266.389 78.5614 266.498C78.7536 266.607 78.9825 266.637 79.1978 266.582C79.4131 266.527 79.5972 266.392 79.7096 266.205L82.1776 262.101C82.2541 261.973 82.2935 261.828 82.2917 261.681L82.2247 255.976Z" fill="black"/>
<path d="M78.765 247.052C78.5425 247.054 78.3302 247.143 78.1748 247.298C78.0193 247.452 77.9334 247.66 77.9359 247.877C77.9384 248.093 78.0292 248.299 78.1883 248.45C78.3474 248.601 78.5617 248.684 78.7841 248.682L79.6227 248.672L79.6432 250.416C77.363 250.763 75.2383 251.756 73.5345 253.269C71.8306 254.783 70.6232 256.751 70.063 258.926C69.5028 261.102 69.6147 263.39 70.3847 265.503C71.1547 267.617 72.5486 269.463 74.3924 270.81L73.3942 271.803C73.2385 271.958 73.1524 272.166 73.1548 272.382C73.1572 272.599 73.2479 272.805 73.4069 272.956C73.566 273.107 73.7803 273.191 74.0029 273.188C74.2254 273.186 74.4379 273.098 74.5936 272.943L75.8305 271.713C77.5945 272.648 79.5772 273.125 81.5871 273.099C83.5971 273.078 85.568 272.554 87.3095 271.578L88.575 272.779C88.7343 272.93 88.9488 273.013 89.1713 273.01C89.3939 273.008 89.6062 272.919 89.7617 272.764C89.9171 272.609 90.0029 272.401 90.0002 272.185C89.9975 271.968 89.9065 271.762 89.7473 271.611L88.7277 270.642C90.5394 269.251 91.8896 267.373 92.6096 265.242C93.3297 263.111 93.3877 260.821 92.7763 258.659C92.165 256.497 90.9114 254.558 89.1723 253.085C87.4331 251.612 85.2855 250.67 82.9977 250.376L82.9772 248.632L83.8158 248.623C84.0382 248.62 84.2505 248.532 84.406 248.377C84.5615 248.222 84.6474 248.014 84.6449 247.798C84.6423 247.582 84.5515 247.375 84.3925 247.224C84.2334 247.074 84.0191 246.99 83.7967 246.993L78.765 247.052ZM80.5637 251.95C81.0791 251.906 81.5972 251.9 82.1135 251.932C84.7099 252.096 87.1393 253.231 88.8919 255.099C90.6445 256.967 91.584 259.422 91.5135 261.949C91.4429 264.477 90.3677 266.88 88.5134 268.655C86.659 270.43 84.1698 271.439 81.568 271.469C78.9661 271.5 76.4539 270.55 74.5584 268.819C72.6629 267.088 71.5315 264.711 71.4016 262.186C71.2717 259.66 72.1533 257.184 73.8616 255.275C75.5698 253.367 77.9719 252.175 80.5637 251.95ZM67.9299 252.884C67.9443 254.111 68.5158 255.207 69.4085 255.943C70.6738 253.45 72.7218 251.413 75.2566 250.125C74.6888 249.505 73.9396 249.068 73.1091 248.874C72.2787 248.679 71.4067 248.735 70.6099 249.035C69.8131 249.336 69.1294 249.865 68.6505 250.553C68.1715 251.241 67.9201 252.054 67.9299 252.884V252.884ZM90.5248 248.544C89.2618 248.559 88.1344 249.115 87.3763 249.983C89.9405 251.21 92.0359 253.199 93.3594 255.661C93.9979 255.109 94.4476 254.381 94.6486 253.574C94.8495 252.767 94.7919 251.919 94.4837 251.145C94.1754 250.371 93.631 249.707 92.9235 249.242C92.216 248.777 91.3791 248.534 90.5248 248.544Z" fill="black"/>
<g clip-path="url(#clip1_64_126)">
<path d="M58.1375 162.615L53.7339 166.224M75.5241 202.639L73.1775 199.767L86.8308 188.607L89.1798 191.476L75.5241 202.639ZM54.9678 184.128L52.6211 181.257L69.533 167.432L71.8797 170.303L54.9678 184.128ZM70.9878 188.692L68.641 185.821L78.1816 178.022L80.5284 180.893L70.9878 188.692ZM62.867 186.512L60.5203 183.641L73.8589 172.737L76.2057 175.607L62.867 186.512ZM74.2185 194.863L71.8707 191.993L82.5005 183.303L84.8472 186.175L74.2185 194.863ZM53.907 176.177L53.4655 161.392L67.5593 165.016L53.907 176.177V176.177Z" stroke="black" stroke-width="2" stroke-linecap="round" stroke-linejoin="round"/>
<path d="M87.6239 172.694C88.1174 172.743 88.5146 172.952 88.8153 173.32C89.1161 173.688 89.2417 174.119 89.1921 174.612C89.1425 175.106 88.9338 175.503 88.5659 175.804C88.198 176.104 87.7673 176.23 87.2738 176.18C86.7962 176.132 86.407 175.924 86.1063 175.556C85.8055 175.189 85.6799 174.758 85.7295 174.264C85.7791 173.771 85.9878 173.374 86.3557 173.073C86.7236 172.772 87.1463 172.646 87.6239 172.694Z" fill="black"/>
<line x1="44.6056" y1="198.267" x2="60.148" y2="210.297" stroke="black"/>
</g>
<line y1="-0.5" x2="14.1372" y2="-0.5" transform="matrix(0.662299 -0.74924 0.742565 0.669774 104.035 278.448)" stroke="black"/>
<line x1="114.853" y1="261.23" x2="119.396" y2="253.646" stroke="black"/>
<line x1="135.496" y1="248.953" x2="150.121" y2="253.437" stroke="black"/>
<line x1="173.713" y1="240.994" x2="184.691" y2="224.006" stroke="black"/>
<path d="M177.975 217.531L160.541 208.745" stroke="black"/>
<line x1="84.3489" y1="145.061" x2="97.3146" y2="148.633" stroke="black"/>
<line x1="152.897" y1="159.787" x2="152.855" y2="143.049" stroke="black"/>
<line y1="-0.5" x2="11.8852" y2="-0.5" transform="matrix(0.355716 -0.934594 0.932679 0.360709 175.464 139.506)" stroke="black"/>
<line y1="-0.5" x2="12.6439" y2="-0.5" transform="matrix(0.87 -0.493052 0.484417 0.874837 181.549 110.234)" stroke="black"/>
<path d="M193.766 66.2413L183.94 55.4327" stroke="black"/>
<line x1="153.15" y1="49.3044" x2="164.849" y2="42.9326" stroke="black"/>
<line x1="177.483" y1="56.8721" x2="181.855" y2="73.3916" stroke="black"/>
<line y1="-0.5" x2="11.8852" y2="-0.5" transform="matrix(0.355716 -0.934594 0.932679 0.360709 145.928 183.157)" stroke="black"/>
<line x1="143.08" y1="202.469" x2="158.005" y2="203.968" stroke="black"/>
<line x1="91.5931" y1="283.743" x2="100.748" y2="282.652" stroke="black"/>
<line y1="-0.5" x2="17.1188" y2="-0.5" transform="matrix(0.942558 -0.334041 0.326421 0.945225 65.188 235.889)" stroke="black"/>
<path d="M64.4901 277.947L79.5428 284.731" stroke="black"/>
<line y1="-0.5" x2="14.9083" y2="-0.5" transform="matrix(-0.322457 -0.946584 0.943969 -0.330034 61.7067 272.187)" stroke="black"/>
<line x1="97.1462" y1="236.981" x2="86.3701" y2="229.012" stroke="black"/>
<line y1="-0.5" x2="16.4379" y2="-0.5" transform="matrix(-0.479895 -0.877326 0.872552 -0.488521 140.245 200.677)" stroke="black"/>
<line y1="-0.5" x2="14.7861" y2="-0.5" transform="matrix(-0.951306 -0.308249 0.304139 -0.952627 120.517 191.122)" stroke="black"/>
<path d="M104.009 241.259L118.306 249.011" stroke="black"/>
<line y1="-0.5" x2="11.8852" y2="-0.5" transform="matrix(0.355716 -0.934594 0.932679 0.360709 57.2536 252.915)" stroke="black"/>
<line y1="-0.5" x2="12.6484" y2="-0.5" transform="matrix(0.852261 -0.523117 0.514462 0.857513 160.714 138.201)" stroke="black"/>
<line y1="-0.5" x2="12.6896" y2="-0.5" transform="matrix(0.6487 -0.761044 0.754586 0.656201 90.7172 198.613)" stroke="black"/>
<line y1="-0.5" x2="15.3636" y2="-0.5" transform="matrix(0.969825 -0.243802 0.237325 0.97143 67.6896 210.978)" stroke="black"/>
<line y1="-0.5" x2="13.2573" y2="-0.5" transform="matrix(0.287604 0.95775 -0.956015 0.293319 36.3785 173.499)" stroke="black"/>
<line y1="-0.5" x2="12.4293" y2="-0.5" transform="matrix(0.649456 -0.760399 0.755242 0.655446 40.4212 163.643)" stroke="black"/>
<line y1="-0.5" x2="19.0065" y2="-0.5" transform="matrix(0.957023 -0.290013 0.282906 0.959148 52.777 152.867)" stroke="black"/>
<line x1="77.1873" y1="151.799" x2="84.2479" y2="161.553" stroke="black"/>
<line x1="90.5685" y1="168.405" x2="97.6706" y2="177.972" stroke="black"/>
<line x1="119.892" y1="146.176" x2="109.183" y2="152.731" stroke="black"/>
<line y1="-0.5" x2="12.6896" y2="-0.5" transform="matrix(0.6487 -0.761044 0.754586 0.656201 127.679 140.469)" stroke="black"/>
<line x1="127.402" y1="98.3813" x2="114.468" y2="97.0824" stroke="black"/>
<line y1="-0.5" x2="12.6849" y2="-0.5" transform="matrix(-0.516316 -0.856398 0.851121 -0.52497 140.347 117.628)" stroke="black"/>
<line y1="-0.5" x2="12.6896" y2="-0.5" transform="matrix(0.6487 -0.761044 0.754586 0.656201 134.597 84.5309)" stroke="black"/>
<line y1="-0.5" x2="12.6896" y2="-0.5" transform="matrix(0.6487 -0.761044 0.754586 0.656201 144.427 66.6664)" stroke="black"/>
<line y1="-0.5" x2="17.8025" y2="-0.5" transform="matrix(-0.25247 -0.967605 0.965833 -0.259166 202.495 253.226)" stroke="black"/>
<line y1="-0.5" x2="13.5601" y2="-0.5" transform="matrix(0.445631 0.895217 -0.890924 0.454153 122.434 285.67)" stroke="black"/>
<line x1="156.505" y1="256.163" x2="169.244" y2="249.402" stroke="black"/>
<line x1="90.3879" y1="96.6742" x2="103.323" y2="97.9732" stroke="black"/>
<line x1="163.802" y1="148.313" x2="174.248" y2="154.387" stroke="black"/>
<line x1="203.452" y1="160.11" x2="188.811" y2="156.806" stroke="black"/>
<line x1="181.738" y1="23.6426" x2="190.797" y2="13.497" stroke="black"/>
<line x1="61.8929" y1="145.432" x2="69.9347" y2="125.402" stroke="black"/>
<line y1="-0.5" x2="21.8891" y2="-0.5" transform="matrix(0.512765 -0.858529 0.854321 0.519745 75.731 120.575)" stroke="black"/>
<line y1="-0.5" x2="18.6695" y2="-0.5" transform="matrix(0.881019 -0.473081 0.464492 0.885577 90.87 93.7884)" stroke="black"/>
<line y1="-0.5" x2="18.5043" y2="-0.5" transform="matrix(0.933126 -0.359549 0.351673 0.936123 114.106 79.3474)" stroke="black"/>
<path d="M186 77.2543L190.016 93.4272" stroke="black"/>
<g clip-path="url(#clip2_64_126)">
<path d="M122.283 156.248L123.437 156.364L124.111 149.651L136.707 150.916L135.607 161.879L129.308 161.247L129.172 162.6L135.471 163.232C135.632 163.243 135.794 163.22 135.947 163.163C136.101 163.106 136.242 163.018 136.363 162.902C136.484 162.787 136.583 162.648 136.653 162.492C136.723 162.336 136.763 162.168 136.771 161.996L137.872 151.033C137.894 150.866 137.885 150.696 137.845 150.533C137.805 150.37 137.735 150.217 137.639 150.083C137.544 149.95 137.424 149.838 137.287 149.754C137.149 149.67 136.998 149.616 136.84 149.595L124.244 148.33C124.085 148.319 123.925 148.342 123.774 148.397C123.623 148.452 123.484 148.538 123.363 148.65C123.243 148.762 123.144 148.897 123.072 149.049C123.001 149.201 122.958 149.366 122.947 149.534L122.283 156.248Z" fill="black"/>
<path d="M126.717 161.424L131.498 157.259L131.982 156.838L132.07 156.762L133.918 153.573C134.041 153.368 134.101 153.129 134.089 152.888C134.076 152.648 133.993 152.418 133.85 152.232C133.708 152.047 133.513 151.914 133.294 151.853C133.074 151.793 132.842 151.807 132.629 151.895L129.343 153.199L128.759 153.706L128.285 154.118L123.504 158.293L123.01 158.713L122.735 158.953C122.285 159.344 121.999 159.907 121.937 160.517C121.876 161.128 122.045 161.736 122.408 162.209C122.769 162.676 123.293 162.971 123.863 163.028C124.436 163.086 125.011 162.902 125.462 162.516L126.232 161.856L126.726 161.436L126.717 161.424ZM132.605 153.334L131.173 155.785L130.063 154.328L132.605 153.334ZM130.259 156.686L125.963 160.43L124.809 158.915L129.07 155.115L130.259 156.686ZM124.043 161.732C123.923 161.721 123.806 161.684 123.7 161.624C123.594 161.564 123.501 161.481 123.425 161.382C123.272 161.181 123.2 160.922 123.226 160.663C123.252 160.403 123.374 160.164 123.564 159.997L123.839 159.768L124.994 161.273L124.719 161.512C124.62 161.597 124.504 161.658 124.381 161.692C124.258 161.726 124.13 161.731 124.006 161.707L124.043 161.732Z" fill="black"/>
</g>
<line y1="-0.5" x2="16.4379" y2="-0.5" transform="matrix(-0.479895 -0.877326 0.872552 -0.488521 152.745 138.793)" stroke="black"/>
<path d="M70.7459 103.075C71.2395 103.125 71.6366 103.334 71.9373 103.702C72.2381 104.07 72.3637 104.5 72.3141 104.994C72.2645 105.487 72.0558 105.884 71.6879 106.185C71.32 106.486 70.8893 106.612 70.3958 106.562C69.9182 106.514 69.529 106.306 69.2283 105.938C68.9275 105.57 68.802 105.14 68.8515 104.646C68.9011 104.153 69.1098 103.755 69.4777 103.455C69.8456 103.154 70.2683 103.028 70.7459 103.075Z" fill="black"/>
<path d="M46.3156 226.251C46.8092 226.3 47.2063 226.509 47.507 226.877C47.8078 227.245 47.9334 227.676 47.8838 228.169C47.8342 228.663 47.6255 229.06 47.2576 229.361C46.8897 229.661 46.459 229.787 45.9655 229.737C45.4879 229.689 45.0987 229.481 44.798 229.114C44.4973 228.746 44.3717 228.315 44.4212 227.821C44.4708 227.328 44.6795 226.931 45.0474 226.63C45.4153 226.329 45.838 226.203 46.3156 226.251Z" fill="black"/>
<path d="M85.5244 216.118C86.0179 216.168 86.415 216.376 86.7158 216.744C87.0165 217.112 87.1421 217.543 87.0925 218.036C87.043 218.53 86.8343 218.927 86.4664 219.228C86.0985 219.528 85.6678 219.654 85.1742 219.604C84.6967 219.556 84.3075 219.349 84.0067 218.981C83.706 218.613 83.5804 218.182 83.63 217.689C83.6795 217.195 83.8882 216.798 84.2561 216.497C84.624 216.196 85.0468 216.07 85.5244 216.118Z" fill="black"/>
<path d="M35.2793 206.047C35.7728 206.097 36.1699 206.305 36.4707 206.673C36.7714 207.041 36.897 207.472 36.8474 207.965C36.7979 208.459 36.5891 208.856 36.2212 209.157C35.8534 209.457 35.4226 209.583 34.9291 209.533C34.4515 209.485 34.0624 209.278 33.7616 208.91C33.4609 208.542 33.3353 208.111 33.3848 207.618C33.4344 207.124 33.6431 206.727 34.011 206.426C34.3789 206.125 34.8017 205.999 35.2793 206.047Z" fill="black"/>
<path d="M100.974 152.343C101.468 152.392 101.865 152.601 102.166 152.969C102.466 153.337 102.592 153.767 102.542 154.261C102.493 154.754 102.284 155.152 101.916 155.452C101.548 155.753 101.118 155.879 100.624 155.829C100.147 155.781 99.7574 155.573 99.4567 155.205C99.1559 154.837 99.0304 154.407 99.0799 153.913C99.1295 153.42 99.3382 153.023 99.7061 152.722C100.074 152.421 100.497 152.295 100.974 152.343Z" fill="black"/>
<path d="M127.701 246.484C128.195 246.534 128.592 246.743 128.893 247.111C129.193 247.478 129.319 247.909 129.269 248.403C129.22 248.896 129.011 249.293 128.643 249.594C128.275 249.895 127.845 250.02 127.351 249.971C126.873 249.923 126.484 249.715 126.184 249.347C125.883 248.979 125.757 248.548 125.807 248.055C125.856 247.561 126.065 247.164 126.433 246.864C126.801 246.563 127.224 246.436 127.701 246.484Z" fill="black"/>
<path d="M166.486 60.4288C166.98 60.4783 167.377 60.6871 167.678 61.055C167.979 61.4228 168.104 61.8535 168.055 62.3471C168.005 62.8406 167.796 63.2377 167.428 63.5385C167.061 63.8392 166.63 63.9648 166.136 63.9152C165.659 63.8673 165.27 63.6593 164.969 63.2915C164.668 62.9236 164.542 62.4929 164.592 61.9993C164.642 61.5058 164.85 61.1087 165.218 60.8079C165.586 60.5072 166.009 60.3808 166.486 60.4288Z" fill="black"/>
<path d="M140.075 163.305C140.568 163.354 140.965 163.563 141.266 163.931C141.567 164.299 141.692 164.729 141.643 165.223C141.593 165.716 141.385 166.113 141.017 166.414C140.649 166.715 140.218 166.841 139.725 166.791C139.247 166.743 138.858 166.535 138.557 166.167C138.256 165.799 138.131 165.369 138.18 164.875C138.23 164.382 138.439 163.984 138.806 163.684C139.174 163.383 139.597 163.257 140.075 163.305Z" fill="black"/>
<path d="M113.701 175.731C114.194 175.781 114.592 175.99 114.892 176.358C115.193 176.725 115.319 177.156 115.269 177.65C115.219 178.143 115.011 178.54 114.643 178.841C114.275 179.142 113.844 179.267 113.351 179.218C112.873 179.17 112.484 178.962 112.183 178.594C111.883 178.226 111.757 177.795 111.806 177.302C111.856 176.808 112.065 176.411 112.433 176.11C112.801 175.81 113.223 175.683 113.701 175.731Z" fill="black"/>
<path d="M195.662 10.0922C196.156 10.1417 196.553 10.3505 196.854 10.7183C197.154 11.0862 197.28 11.5169 197.23 12.0105C197.181 12.504 196.972 12.9011 196.604 13.2019C196.236 13.5026 195.806 13.6282 195.312 13.5786C194.834 13.5307 194.445 13.3227 194.145 12.9548C193.844 12.587 193.718 12.1562 193.768 11.6627C193.817 11.1692 194.026 10.7721 194.394 10.4713C194.762 10.1706 195.185 10.0442 195.662 10.0922Z" fill="black"/>
<path d="M132.261 50.9615C132.755 51.011 133.152 51.2198 133.453 51.5877C133.753 51.9556 133.879 52.3863 133.829 52.8798C133.78 53.3733 133.571 53.7704 133.203 54.0712C132.835 54.3719 132.405 54.4975 131.911 54.4479C131.433 54.4 131.044 54.1921 130.743 53.8242C130.443 53.4563 130.317 53.0256 130.367 52.5321C130.416 52.0385 130.625 51.6414 130.993 51.3407C131.361 51.0399 131.784 50.9135 132.261 50.9615Z" fill="black"/>
<path d="M133.239 91.2609C133.733 91.3105 134.13 91.5192 134.431 91.8871C134.731 92.255 134.857 92.6857 134.807 93.1792C134.758 93.6727 134.549 94.0699 134.181 94.3706C133.813 94.6714 133.383 94.7969 132.889 94.7474C132.411 94.6994 132.022 94.4915 131.722 94.1236C131.421 93.7557 131.295 93.325 131.345 92.8315C131.394 92.338 131.603 91.9408 131.971 91.6401C132.339 91.3394 132.762 91.213 133.239 91.2609Z" fill="black"/>
<path d="M190.686 249.795C191.179 249.844 191.576 250.053 191.877 250.421C192.178 250.789 192.303 251.219 192.254 251.713C192.204 252.206 191.996 252.603 191.628 252.904C191.26 253.205 190.829 253.331 190.336 253.281C189.858 253.233 189.469 253.025 189.168 252.657C188.867 252.289 188.742 251.859 188.791 251.365C188.841 250.872 189.05 250.474 189.417 250.174C189.785 249.873 190.208 249.747 190.686 249.795Z" fill="black"/>
<path d="M91.469 277.017C91.9625 277.066 92.3596 277.275 92.6604 277.643C92.9611 278.011 93.0867 278.442 93.0371 278.935C92.9876 279.429 92.7788 279.826 92.4109 280.126C92.0431 280.427 91.6123 280.553 91.1188 280.503C90.6412 280.455 90.2521 280.247 89.9513 279.879C89.6506 279.512 89.525 279.081 89.5745 278.587C89.6241 278.094 89.8328 277.697 90.2007 277.396C90.5686 277.095 90.9914 276.969 91.469 277.017Z" fill="black"/>
<path d="M138.463 209.374C138.957 209.424 139.354 209.632 139.655 210C139.955 210.368 140.081 210.799 140.031 211.292C139.982 211.786 139.773 212.183 139.405 212.484C139.037 212.784 138.607 212.91 138.113 212.86C137.635 212.813 137.246 212.605 136.946 212.237C136.645 211.869 136.519 211.438 136.569 210.945C136.618 210.451 136.827 210.054 137.195 209.753C137.563 209.452 137.986 209.326 138.463 209.374Z" fill="black"/>
<path d="M182.468 151.481C182.962 151.531 183.359 151.74 183.66 152.108C183.96 152.475 184.086 152.906 184.036 153.4C183.987 153.893 183.778 154.29 183.41 154.591C183.042 154.892 182.612 155.017 182.118 154.968C181.64 154.92 181.251 154.712 180.951 154.344C180.65 153.976 180.524 153.545 180.574 153.052C180.623 152.558 180.832 152.161 181.2 151.861C181.568 151.56 181.991 151.433 182.468 151.481Z" fill="black"/>
<path d="M211.461 62.9353C211.955 62.9849 212.352 63.1936 212.652 63.5615C212.953 63.9294 213.079 64.3601 213.029 64.8536C212.98 65.3471 212.771 65.7442 212.403 66.045C212.035 66.3457 211.604 66.4713 211.111 66.4218C210.633 66.3738 210.244 66.1659 209.943 65.798C209.643 65.4301 209.517 64.9994 209.567 64.5059C209.616 64.0124 209.825 63.6152 210.193 63.3145C210.561 63.0137 210.983 62.8873 211.461 62.9353Z" fill="black"/>
<path d="M162.381 121.323C162.875 121.373 163.272 121.582 163.573 121.949C163.873 122.317 163.999 122.748 163.949 123.242C163.9 123.735 163.691 124.132 163.323 124.433C162.955 124.734 162.525 124.859 162.031 124.81C161.553 124.762 161.164 124.554 160.864 124.186C160.563 123.818 160.437 123.387 160.487 122.894C160.536 122.4 160.745 122.003 161.113 121.702C161.481 121.402 161.904 121.275 162.381 121.323Z" fill="black"/>
<path d="M172.695 44.0822C173.189 44.1317 173.586 44.3404 173.887 44.7083C174.187 45.0762 174.313 45.5069 174.263 46.0004C174.214 46.494 174.005 46.8911 173.637 47.1918C173.269 47.4926 172.839 47.6182 172.345 47.5686C171.868 47.5207 171.478 47.3127 171.178 46.9448C170.877 46.5769 170.751 46.1462 170.801 45.6527C170.85 45.1592 171.059 44.7621 171.427 44.4613C171.795 44.1606 172.218 44.0342 172.695 44.0822Z" fill="black"/>
<line y1="-0.5" x2="21.4714" y2="-0.5" transform="matrix(0.474907 -0.880036 0.876433 0.481524 133.785 282.44)" stroke="black"/>
<path d="M153.959 244.257C158.036 244.797 162.16 243.696 165.425 241.198C168.691 238.699 170.832 235.007 171.378 230.931C171.654 226.828 170.29 222.784 167.586 219.686C164.882 216.588 161.059 214.689 156.957 214.407C152.88 213.868 148.756 214.968 145.49 217.467C142.225 219.965 140.084 223.658 139.538 227.734C139.262 231.836 140.626 235.881 143.33 238.979C146.034 242.077 149.857 243.975 153.959 244.257ZM141.965 229.384L144.353 230.227C144.836 230.416 144.872 230.46 144.906 230.524C145.165 230.952 145.449 231.523 145.715 232.073C145.697 232.252 145.928 232.556 145.972 232.721C146.016 232.887 145.155 233.845 144.789 234.291C144.41 234.613 143.984 234.876 143.525 235.069C142.53 233.337 141.993 231.381 141.965 229.384ZM154.209 241.77L154.422 241.449C154.433 241.516 154.426 241.585 154.402 241.648C154.414 241.529 154.731 241.38 154.949 241.201L155.604 240.684C155.905 240.427 156.107 240.074 156.176 239.685C156.244 239.295 156.175 238.894 155.979 238.551L156.218 238.575C156.533 238.597 156.85 238.548 157.143 238.431C157.437 238.315 157.7 238.133 157.914 237.901C158.165 237.62 158.349 237.286 158.455 236.925C158.561 236.564 158.585 236.183 158.526 235.811L158.54 235.672C158.835 235.649 159.129 235.605 159.418 235.539L159.911 235.428L161.227 235.138C161.617 235.065 161.984 234.896 162.293 234.646C162.602 234.397 162.845 234.074 162.999 233.708C163.123 233.4 163.169 233.066 163.132 232.736C163.095 232.405 162.976 232.09 162.786 231.817C162.076 230.876 161.223 230.051 160.258 229.372C159.324 228.605 158.234 228.05 157.065 227.745L153.721 227.409C153.317 227.388 152.924 227.265 152.58 227.051C152.236 226.837 151.952 226.54 151.754 226.186C151.657 226.064 151.59 225.92 151.56 225.767C151.53 225.613 151.537 225.455 151.581 225.305C151.646 225.055 151.773 224.826 151.949 224.638C153.021 223.928 153.805 222.86 154.162 221.624C154.513 220.715 154.925 219.829 155.393 218.974C155.693 218.381 155.972 217.806 156.179 217.344C156.852 217.363 157.517 217.485 158.153 217.703C157.846 219.166 158.048 220.69 158.725 222.022C159.315 222.88 159.587 223.917 159.496 224.954C159.268 225.924 159.391 226.943 159.843 227.83C160.295 228.718 161.046 229.417 161.963 229.805C164.052 231.413 165.829 233.39 167.207 235.638C165.831 237.773 163.883 239.48 161.585 240.564C159.288 241.648 156.732 242.066 154.209 241.77ZM168.89 230.681C168.813 231.457 168.655 232.223 168.42 232.966C166.983 230.846 165.162 229.014 163.053 227.562C161.903 227.005 161.77 226.529 161.904 225.196C162.066 223.532 161.619 221.866 160.646 220.507C160.439 219.614 160.436 218.686 160.637 217.792C163.227 218.751 165.434 220.528 166.923 222.854C168.413 225.18 169.103 227.928 168.89 230.681ZM153.549 216.919C153.519 217.218 153.246 217.532 153.095 217.839C152.539 218.822 152.066 219.851 151.68 220.913C151.457 221.572 151.018 222.137 150.434 222.516C149.669 223.131 149.17 224.016 149.04 224.989C148.969 225.45 148.993 225.92 149.11 226.37C149.227 226.821 149.435 227.243 149.721 227.611C150.141 228.246 150.703 228.775 151.363 229.155C152.022 229.535 152.761 229.756 153.521 229.801L156.686 230.119C158.131 230.671 159.421 231.566 160.444 232.728L159.476 232.952L158.923 233.057C158.676 233.142 158.411 233.164 158.153 233.121L158.004 232.804C157.883 232.51 157.657 232.271 157.37 232.135C157.082 231.998 156.754 231.973 156.45 232.065C156.147 232.171 155.894 232.385 155.739 232.667C155.585 232.948 155.54 233.277 155.613 233.589L155.577 233.947C155.736 234.566 155.911 235.428 156.014 236.001C155.5 235.928 154.976 235.997 154.498 236.2C154.021 236.404 153.608 236.735 153.305 237.156C153.148 237.477 153.08 237.835 153.108 238.191C153.136 238.547 153.259 238.89 153.464 239.182C153.208 239.369 152.966 239.573 152.739 239.793C152.535 239.993 152.375 240.235 152.272 240.502C152.169 240.769 152.124 241.055 152.141 241.341C149.401 240.652 146.937 239.142 145.078 237.014C145.718 236.706 146.297 236.288 146.79 235.779C147.334 235.133 147.832 234.451 148.282 233.737C148.489 233.29 148.579 232.797 148.544 232.305C148.509 231.813 148.35 231.337 148.082 230.923C147.786 230.27 147.448 229.633 147.14 229.1C146.708 228.428 146.039 227.944 145.265 227.746C144.84 227.583 143.319 227.108 142.247 226.78C142.865 224.162 144.288 221.803 146.315 220.035C148.342 218.266 150.871 217.177 153.549 216.919Z" fill="black"/>
<path d="M202.647 264.93L193.712 265.304L192.519 261.303C192.362 260.792 192.015 260.346 191.535 260.042C191.055 259.737 190.472 259.592 189.884 259.631L179.362 260.071C178.773 260.081 178.204 260.275 177.751 260.618C177.298 260.962 176.989 261.434 176.876 261.957L176.019 265.997L166.802 266.382C166.123 266.411 165.482 266.681 165.02 267.135C164.558 267.588 164.312 268.187 164.338 268.8L165.207 289.594C165.233 290.207 165.527 290.783 166.025 291.196C166.524 291.61 167.185 291.826 167.864 291.797L203.708 290.299C204.387 290.271 205.028 290 205.49 289.547C205.952 289.094 206.197 288.495 206.171 287.882L205.302 267.088C205.264 266.483 204.964 265.919 204.467 265.516C203.971 265.112 203.318 264.902 202.647 264.93ZM179.92 262.987L189.546 262.585L190.409 265.442L179.298 265.906L179.92 262.987ZM202.128 267.845L202.369 273.621L167.806 275.066L167.564 269.29L202.128 267.845ZM168.385 288.929L167.927 277.954L180.088 277.446L180.112 278.023C180.138 278.636 180.432 279.213 180.93 279.626C181.428 280.039 182.09 280.255 182.769 280.227L187.889 280.013C188.568 279.984 189.209 279.714 189.671 279.26C190.133 278.807 190.379 278.208 190.353 277.595L190.329 277.018L202.49 276.509L202.949 287.484L168.385 288.929Z" fill="black"/>
<g clip-path="url(#clip3_64_126)">
<path d="M17.092 301.435C21.3669 301.844 25.6343 300.585 29.0027 297.921C30.8686 298.936 32.9563 299.473 35.0801 299.486C37.2039 299.498 39.2977 298.985 41.1753 297.992C43.0528 297 44.6557 295.558 45.8413 293.796C47.0269 292.034 47.7584 290.006 47.9706 287.893C48.1828 285.78 47.8692 283.647 47.0576 281.684C46.2461 279.721 44.9618 277.99 43.3192 276.644C41.6765 275.298 39.7265 274.378 37.6427 273.968C35.5589 273.558 33.4059 273.67 31.3756 274.293C29.6276 272.215 27.3955 270.599 24.8759 269.587C22.3563 268.575 19.6265 268.198 16.9269 268.489C14.2274 268.781 11.6408 269.731 9.39516 271.258C7.14948 272.784 5.31355 274.839 4.04906 277.242C2.78456 279.645 2.13031 282.321 2.14392 285.037C2.15752 287.752 2.83857 290.422 4.12707 292.812C5.41558 295.202 7.27201 297.239 9.53288 298.742C11.7937 300.246 14.3897 301.171 17.092 301.435ZM20.0337 272.142C23.4353 272.484 26.5624 274.161 28.729 276.805C30.8957 279.45 31.9249 282.846 31.5909 286.248L35.2525 286.616C35.5647 283.506 34.9877 280.372 33.5885 277.578C34.4307 277.423 35.2901 277.383 36.1431 277.459C38.5709 277.703 40.8024 278.901 42.3467 280.79C43.891 282.679 44.6216 285.104 44.3778 287.532C44.134 289.96 42.9357 292.191 41.0466 293.736C39.1575 295.28 36.7324 296.01 34.3046 295.767C31.8768 295.523 29.6453 294.325 28.101 292.435C26.5567 290.546 25.8261 288.121 26.0699 285.693L22.3225 285.317C22.133 287.196 22.3647 289.094 23.0009 290.872C23.637 292.651 24.6615 294.265 25.9999 295.597C24.289 296.764 22.3218 297.502 20.2651 297.747C18.2085 297.992 16.1231 297.737 14.1858 297.005C12.2485 296.272 10.5164 295.083 9.13641 293.539C7.75645 291.994 6.76932 290.14 6.25873 288.133C5.74814 286.125 5.72916 284.025 6.20339 282.008C6.67761 279.992 7.63107 278.12 8.98289 276.551C10.3347 274.982 12.045 273.762 13.9688 272.994C15.8925 272.227 17.973 271.935 20.0337 272.142Z" fill="black"/>
</g>
<line y1="-0.5" x2="18.1973" y2="-0.5" transform="matrix(0.59388 -0.804553 0.798999 0.601332 39.9279 265.979)" stroke="black"/>
<line y1="-0.5" x2="18.1973" y2="-0.5" transform="matrix(0.59388 -0.804553 0.798999 0.601332 30.0778 263.985)" stroke="black"/>
<line y1="-0.5" x2="18.1973" y2="-0.5" transform="matrix(0.59388 -0.804553 0.798999 0.601332 20.4276 260.001)" stroke="black"/>
<g clip-path="url(#clip4_64_126)">
<path d="M181.674 140.861L218.997 144.609C220.775 144.787 222.282 144.373 222.351 143.686L222.618 141.021C222.687 140.334 221.293 139.628 219.515 139.45L182.193 135.702C180.414 135.523 178.908 135.938 178.839 136.625L178.571 139.289C178.502 139.976 179.896 140.682 181.674 140.861ZM182.25 137.053L219.19 140.762L218.938 143.268L181.999 139.558L182.25 137.053ZM182.324 134.391L219.647 138.139C221.425 138.317 222.932 137.903 223.001 137.216L223.268 134.551C223.337 133.864 221.943 133.158 220.165 132.98L182.842 129.232C181.064 129.053 179.557 129.468 179.488 130.155L179.221 132.819C179.152 133.506 180.546 134.212 182.324 134.391ZM182.901 130.572L219.84 134.282L219.588 136.798L182.648 133.088L182.901 130.572Z" fill="black"/>
</g>
<path d="M186.922 36.1199C186.804 37.2436 186.994 38.3791 187.472 39.4115C187.95 40.444 188.699 41.3367 189.643 41.9992C189.59 42.2726 189.562 42.5501 189.559 42.8285C189.432 44.0975 189.828 45.3664 190.66 46.3563C191.492 47.3462 192.692 47.9759 193.996 48.1069L194.291 48.1365C194.49 48.9002 194.879 49.6058 195.422 50.1913C195.965 50.7768 196.647 51.2244 197.408 51.4948C198.168 51.7652 198.984 51.8501 199.784 51.7422C200.585 51.6342 201.344 51.3367 201.997 50.8756C202.544 51.4572 203.23 51.8998 203.992 52.1647C204.755 52.4296 205.572 52.5086 206.371 52.3949C207.17 52.2811 207.927 51.9781 208.576 51.5123C209.225 51.0465 209.746 50.4323 210.093 49.7234L210.388 49.753C211.692 49.884 212.993 49.5055 214.006 48.7008C215.018 47.8962 215.658 46.7312 215.786 45.4623C215.838 45.1888 215.866 44.9114 215.869 44.633C216.851 44.2148 217.711 43.5688 218.375 42.7512C219.04 41.9336 219.488 40.9693 219.681 39.9421C219.874 38.9149 219.806 37.856 219.482 36.8576C219.159 35.8591 218.59 34.9514 217.826 34.2135C218.461 33.2925 218.838 32.2254 218.921 31.1167C219.003 30.008 218.788 28.896 218.296 27.8897C217.805 26.8833 217.053 26.0174 216.116 25.3767C215.179 24.7361 214.088 24.3428 212.95 24.2355L212.655 24.2058C212.456 23.4421 212.068 22.7365 211.525 22.151C210.981 21.5655 210.3 21.118 209.539 20.8476C208.778 20.5772 207.962 20.4922 207.162 20.6002C206.362 20.7081 205.602 21.0057 204.95 21.4667C204.402 20.8851 203.717 20.4425 202.954 20.1776C202.192 19.9127 201.375 19.8337 200.576 19.9475C199.777 20.0612 199.019 20.3643 198.37 20.83C197.722 21.2958 197.201 21.9101 196.854 22.619L196.559 22.5894C195.428 22.4828 194.29 22.6624 193.255 23.1107C192.22 23.559 191.323 24.2607 190.65 25.1479C189.978 26.035 189.554 27.0775 189.419 28.1741C189.284 29.2707 189.442 30.3843 189.879 31.4069C189.054 31.9257 188.361 32.6183 187.849 33.4339C187.337 34.2495 187.021 35.1673 186.922 36.1199ZM204.56 41.838C204.897 42.0725 205.253 42.2806 205.623 42.4603C206.023 42.6371 206.477 42.6526 206.886 42.5034C207.296 42.3542 207.626 42.0524 207.806 41.6646C207.985 41.2767 207.999 40.8345 207.843 40.4352C207.688 40.0359 207.376 39.7123 206.977 39.5354C206.368 39.2501 205.863 38.7903 205.529 38.2182C205.196 37.646 205.051 36.989 205.112 36.3358L205.361 33.8638C205.698 34.0983 206.053 34.3064 206.424 34.4861C206.823 34.6629 207.278 34.6784 207.687 34.5292C208.096 34.38 208.427 34.0782 208.607 33.6904C208.786 33.3025 208.8 32.8603 208.644 32.461C208.489 32.0617 208.177 31.738 207.777 31.5612C207.169 31.2759 206.427 31.9643 206.094 31.3921C205.76 30.8199 205.851 29.0147 205.913 28.3616L206.234 25.1719C206.276 24.7489 206.489 24.3606 206.827 24.0923C207.164 23.8241 207.598 23.698 208.033 23.7416C208.35 23.7755 208.65 23.8981 208.898 24.0945C209.146 24.2909 209.33 24.5528 209.428 24.8483C209.138 24.9777 208.857 25.1271 208.589 25.2956C208.41 25.413 208.256 25.5637 208.137 25.7392C208.018 25.9147 207.936 26.1114 207.895 26.3183C207.854 26.5251 207.856 26.7379 207.899 26.9446C207.943 27.1513 208.028 27.3479 208.15 27.523C208.271 27.6981 208.427 27.8483 208.608 27.9652C208.789 28.082 208.991 28.1632 209.204 28.204C209.417 28.2448 209.635 28.2444 209.848 28.203C210.06 28.1615 210.261 28.0798 210.44 27.9624C211.081 27.537 211.856 27.3467 212.63 27.4252C213.499 27.5125 214.3 27.9323 214.854 28.5922C215.409 29.2521 215.673 30.0981 215.588 30.9441C215.52 31.5436 215.279 32.1113 214.894 32.5819C214.532 32.4808 214.162 32.4113 213.789 32.3743C213.354 32.3306 212.92 32.4568 212.583 32.725C212.245 32.9932 212.032 33.3816 211.989 33.8045C211.947 34.2275 212.079 34.6505 212.356 34.9805C212.634 35.3104 213.034 35.5203 213.468 35.564C213.856 35.6007 214.233 35.7097 214.578 35.8849C215.147 36.151 215.627 36.5698 215.96 37.0917C216.293 37.6136 216.466 38.2167 216.459 38.8296C216.451 39.4425 216.263 40.0395 215.917 40.5499C215.571 41.0602 215.082 41.4626 214.507 41.7093C214.295 41.4774 214.061 41.2651 213.809 41.0754C213.452 40.8259 213.009 40.7241 212.576 40.7925C212.144 40.8609 211.758 41.0938 211.504 41.4399C211.25 41.7861 211.148 42.2172 211.22 42.6384C211.293 43.0595 211.534 43.4363 211.891 43.6858C212.109 43.8328 212.284 44.0339 212.396 44.268C212.521 44.5393 212.56 44.8408 212.507 45.1331C212.465 45.556 212.251 45.9444 211.914 46.2126C211.577 46.4808 211.143 46.607 210.708 46.5633C210.592 46.5673 210.476 46.5557 210.364 46.5287C210.303 46.2638 210.224 46.0029 210.128 45.7479C210.039 45.5544 209.912 45.3797 209.754 45.2338C209.596 45.088 209.41 44.9738 209.206 44.898C209.003 44.8222 208.787 44.7862 208.57 44.7921C208.352 44.798 208.139 44.8456 207.941 44.9323C207.557 45.1085 207.258 45.4235 207.108 45.8109C206.958 46.1984 206.968 46.6282 207.137 47.0101C207.25 47.2686 207.295 47.5498 207.27 47.8289C207.227 48.2519 207.014 48.6402 206.676 48.9084C206.339 49.1767 205.905 49.3028 205.47 49.2592C205.036 49.2155 204.636 49.0056 204.358 48.6756C204.081 48.3457 203.949 47.9227 203.991 47.4997L204.56 41.838ZM192.647 33.6824C193.021 33.5794 193.412 33.5476 193.799 33.5887C194.233 33.6323 194.667 33.5062 195.005 33.2379C195.342 32.9697 195.555 32.5814 195.598 32.1584C195.64 31.7354 195.508 31.3125 195.231 30.9825C194.954 30.6525 194.554 30.4426 194.119 30.399C193.745 30.3609 193.369 30.3555 192.995 30.3827C192.71 29.8448 192.588 29.2406 192.64 28.6395C192.725 27.7936 193.152 27.0169 193.827 26.4805C194.502 25.944 195.369 25.6917 196.239 25.779C197.012 25.856 197.735 26.1967 198.278 26.741C198.585 27.0453 199.004 27.2189 199.441 27.2235C199.878 27.2282 200.299 27.0635 200.61 26.7657C200.921 26.468 201.097 26.0615 201.099 25.6358C201.102 25.2101 200.93 24.7999 200.623 24.4956C200.393 24.2771 200.148 24.0748 199.889 23.8903C200.044 23.6202 200.276 23.4002 200.558 23.257C200.84 23.1137 201.159 23.0534 201.476 23.0832C201.911 23.1268 202.311 23.3367 202.588 23.6667C202.866 23.9967 202.998 24.4197 202.955 24.8426L202.635 28.0323C202.566 28.6848 202.292 29.2997 201.852 29.7942C201.412 30.2887 200.825 30.6388 200.172 30.7974C199.745 30.8913 199.375 31.1465 199.144 31.5069C198.912 31.8673 198.837 32.3034 198.936 32.7192C199.034 33.135 199.299 33.4964 199.67 33.7241C200.042 33.9517 200.49 34.0268 200.917 33.933C201.316 33.8306 201.705 33.6974 202.082 33.5346L201.834 36.0066C201.765 36.659 201.492 37.274 201.051 37.7684C200.611 38.2629 200.024 38.6131 199.371 38.7716C199.16 38.8181 198.96 38.9047 198.784 39.0264C198.607 39.1482 198.457 39.3027 198.343 39.4811C198.228 39.6596 198.151 39.8585 198.115 40.0665C198.079 40.2745 198.086 40.4875 198.135 40.6934C198.184 40.8993 198.274 41.094 198.4 41.2664C198.526 41.4388 198.685 41.5856 198.869 41.6983C199.053 41.811 199.258 41.8875 199.472 41.9233C199.686 41.9592 199.905 41.9537 200.116 41.9072C200.515 41.8048 200.905 41.6716 201.282 41.5088L200.713 47.1705C200.671 47.5935 200.457 47.9818 200.12 48.25C199.782 48.5182 199.348 48.6444 198.914 48.6007C198.479 48.5571 198.079 48.3472 197.802 48.0172C197.524 47.6872 197.392 47.2642 197.435 46.8413C197.465 46.5627 197.566 46.2961 197.728 46.0652C197.855 45.8951 197.947 45.702 197.997 45.4971C198.047 45.2921 198.055 45.0793 198.021 44.8708C197.986 44.6623 197.91 44.4622 197.796 44.2821C197.682 44.102 197.533 43.9453 197.357 43.821C197.181 43.6968 196.981 43.6076 196.769 43.5587C196.558 43.5098 196.338 43.502 196.124 43.5359C195.91 43.5698 195.705 43.6447 195.521 43.7562C195.337 43.8677 195.178 44.0136 195.052 44.1856C194.904 44.4318 194.773 44.6878 194.661 44.9518C194.545 44.9558 194.429 44.9442 194.317 44.9172C193.882 44.8735 193.482 44.6636 193.204 44.3337C192.927 44.0037 192.795 43.5807 192.838 43.1577C192.872 42.8453 192.999 42.55 193.204 42.3086C193.359 42.1151 193.563 41.9636 193.795 41.8685C194.194 41.695 194.506 41.3737 194.661 40.9754C194.816 40.577 194.801 40.1343 194.621 39.7444C194.44 39.3546 194.109 39.0497 193.699 38.8967C193.289 38.7438 192.834 38.7553 192.435 38.9288C192.125 39.0541 191.831 39.2138 191.559 39.4047C191.042 39.0538 190.638 38.5667 190.395 38.001C190.152 37.4353 190.08 36.8146 190.188 36.2123C190.295 35.6099 190.578 35.051 191.002 34.6015C191.426 34.1521 191.974 33.8309 192.581 33.6758L192.647 33.6824Z" fill="black"/>
<path d="M217.87 83.9101L211.585 74.5998C211.19 74.0144 210.63 73.6652 210.025 73.6289L201.467 73.1315C200.867 73.0966 200.273 73.3754 199.817 73.9066C199.36 74.4377 199.078 75.1777 199.033 75.9637L197.172 107.972C197.127 108.758 197.321 109.526 197.713 110.106C198.105 110.687 198.662 111.033 199.262 111.067L214.642 111.961C215.242 111.996 215.835 111.717 216.292 111.186C216.748 110.655 217.03 109.915 217.076 109.129L218.42 86.0118C218.454 85.2358 218.257 84.4822 217.87 83.9101ZM214.814 108.998L199.434 108.104L201.294 76.0952L207.591 76.4612L207.074 85.3524C207.047 85.7453 207.079 86.139 207.169 86.5106C207.26 86.8821 207.406 87.2241 207.6 87.5166C207.795 87.8091 208.033 88.0462 208.301 88.2142C208.569 88.3822 208.861 88.4777 209.161 88.4951L215.983 88.8915L214.814 108.998ZM216.155 85.9278L209.334 85.5313L209.853 76.5926L216.158 85.8804L216.155 85.9278Z" fill="black"/>
<defs>
<clipPath id="clip0_64_126">
<rect width="36" height="36" fill="white" transform="translate(120.766 144.449) rotate(-174.265)"/>
</clipPath>
<clipPath id="clip1_64_126">
<rect width="50" height="50" fill="white" transform="translate(93.0765 210.01) rotate(-174.265)"/>
</clipPath>
<clipPath id="clip2_64_126">
<rect width="16" height="17" fill="white" transform="translate(136.92 165.514) rotate(-174.265)"/>
</clipPath>
<clipPath id="clip3_64_126">
<rect width="46" height="46" fill="white" transform="translate(45.7698 310.787) rotate(-174.265)"/>
</clipPath>
<clipPath id="clip4_64_126">
<rect width="44" height="17" fill="white" transform="translate(221.96 147.576) rotate(-174.265)"/>
</clipPath>
</defs>
</svg>
