<svg width="103" height="94" viewBox="0 0 103 94" fill="none" xmlns="http://www.w3.org/2000/svg">
<g opacity="0.99" filter="url(#filter0_d_64_127)">
<path d="M12.9754 23.8427C5.8234 36.8509 10.5812 53.1997 23.6023 60.3587C36.6233 67.5178 52.9768 62.7761 60.1288 49.7679C67.2807 36.7597 62.5229 20.4109 49.5019 13.2519C36.4808 6.09283 20.1274 10.8345 12.9754 23.8427ZM54.4515 46.6465C49.0217 56.5223 36.6062 60.1222 26.7206 54.6871C16.835 49.2519 13.2229 36.8399 18.6526 26.9641C24.0824 17.0883 36.498 13.4884 46.3836 18.9235C56.2691 24.3587 59.8813 36.7707 54.4515 46.6465Z" fill="white"/>
</g>
<g opacity="0.99" filter="url(#filter1_d_64_127)">
<path d="M88.5618 50.4611C96.091 37.6506 91.8096 21.1619 78.999 13.6328C66.1884 6.10359 49.6998 10.385 42.1706 23.1956C34.6414 36.0062 38.9229 52.4948 51.7334 60.024C64.544 67.5532 81.0327 63.2717 88.5618 50.4611ZM47.7561 26.4784C53.4723 16.7526 65.9904 13.5021 75.7162 19.2183C85.442 24.9344 88.6925 37.4526 82.9763 47.1784C77.2602 56.9042 64.742 60.1546 55.0162 54.4385C45.2904 48.7223 42.04 36.2042 47.7561 26.4784Z" fill="white"/>
</g>
<g opacity="0.99" filter="url(#filter2_d_64_127)">
<path d="M32.511 13.4493C32.2049 11.6872 30.5206 10.4871 28.8073 11.0007C25.2937 12.054 22.0218 13.8177 19.2001 16.1946C15.5505 19.269 12.7853 23.2587 11.1881 27.7548C9.59086 32.251 9.21898 37.0918 10.1106 41.781C11.0022 46.4702 13.1252 50.8391 16.262 54.4399C19.3988 58.0407 23.4365 60.7439 27.9613 62.2722C32.486 63.8006 37.335 64.0992 42.0112 63.1375C46.6873 62.1757 51.0225 59.9882 54.5721 56.7992C57.3153 54.3348 59.5131 51.3408 61.0408 48.01C61.7872 46.3827 60.8296 44.5471 59.1245 44.0012V44.0012C57.4185 43.4551 55.6151 44.4123 54.8064 46.0106C53.6696 48.2573 52.1225 50.2827 50.2354 51.9781C47.5405 54.3992 44.2493 56.0599 40.6992 56.7901C37.1491 57.5202 33.4677 57.2935 30.0325 56.1332C26.5974 54.9728 23.5319 52.9206 21.1505 50.1869C18.7691 47.4532 17.1573 44.1363 16.4804 40.5763C15.8035 37.0162 16.0858 33.3411 17.2984 29.9277C18.511 26.5142 20.6103 23.4853 23.3811 21.1512C25.3217 19.5165 27.5427 18.2639 29.9266 17.4481C31.6211 16.8682 32.8174 15.2139 32.511 13.4493V13.4493Z" fill="black"/>
</g>
<g opacity="0.99" filter="url(#filter3_d_64_127)">
<path d="M42.3908 42.7762C40.6591 43.2258 39.6017 45.0042 40.2561 46.6693C41.657 50.234 43.8078 53.4707 46.5766 56.1529C50.1238 59.5892 54.5483 61.9828 59.3654 63.0716C64.1825 64.1603 69.2064 63.9023 73.8866 62.3256C78.5667 60.7489 82.7227 57.9145 85.899 54.1328C89.0754 50.3512 91.1496 45.7682 91.8944 40.8861C92.6392 36.0039 92.0259 31.011 90.1217 26.4542C88.2174 21.8975 85.0957 17.9528 81.0986 15.0523C77.9785 12.7883 74.419 11.2286 70.666 10.4643C68.9129 10.1073 67.3438 11.456 67.1999 13.2393V13.2393C67.0561 15.0226 68.3961 16.5594 70.1343 16.9831C72.7034 17.6093 75.1367 18.731 77.2935 20.2961C80.3281 22.4981 82.6981 25.4929 84.1438 28.9524C85.5895 32.4118 86.0551 36.2025 85.4896 39.909C84.9242 43.6155 83.3494 47.0948 80.938 49.9658C78.5265 52.8369 75.3713 54.9887 71.8181 56.1858C68.265 57.3828 64.4509 57.5787 60.7937 56.7521C57.1366 55.9255 53.7775 54.1083 51.0846 51.4995C49.1706 49.6454 47.6456 47.4423 46.5851 45.02C45.8676 43.3811 44.1225 42.3265 42.3908 42.7762V42.7762Z" fill="black"/>
</g>
<path d="M24.7727 75.2727C24.7045 74.697 24.428 74.25 23.9432 73.9318C23.4583 73.6136 22.8636 73.4545 22.1591 73.4545C21.6439 73.4545 21.1932 73.5379 20.8068 73.7045C20.4242 73.8712 20.125 74.1004 19.9091 74.392C19.697 74.6837 19.5909 75.0152 19.5909 75.3864C19.5909 75.697 19.6648 75.964 19.8125 76.1875C19.964 76.4072 20.1572 76.5909 20.392 76.7386C20.6269 76.8826 20.8731 77.0019 21.1307 77.0966C21.3883 77.1875 21.625 77.2614 21.8409 77.3182L23.0227 77.6364C23.3258 77.7159 23.6629 77.8258 24.0341 77.9659C24.4091 78.1061 24.767 78.2973 25.108 78.5398C25.4527 78.7784 25.7367 79.0852 25.9602 79.4602C26.1837 79.8352 26.2955 80.2955 26.2955 80.8409C26.2955 81.4697 26.1307 82.0379 25.8011 82.5455C25.4754 83.053 24.9981 83.4564 24.3693 83.7557C23.7443 84.0549 22.9848 84.2045 22.0909 84.2045C21.2576 84.2045 20.536 84.0701 19.9261 83.8011C19.3201 83.5322 18.8428 83.1572 18.4943 82.6761C18.1496 82.1951 17.9545 81.6364 17.9091 81H19.3636C19.4015 81.4394 19.5492 81.803 19.8068 82.0909C20.0682 82.375 20.3977 82.5871 20.7955 82.7273C21.197 82.8636 21.6288 82.9318 22.0909 82.9318C22.6288 82.9318 23.1117 82.8447 23.5398 82.6705C23.9678 82.4924 24.3068 82.2462 24.5568 81.9318C24.8068 81.6136 24.9318 81.2424 24.9318 80.8182C24.9318 80.4318 24.8239 80.1174 24.608 79.875C24.392 79.6326 24.108 79.4356 23.7557 79.2841C23.4034 79.1326 23.0227 79 22.6136 78.8864L21.1818 78.4773C20.2727 78.2159 19.553 77.8428 19.0227 77.358C18.4924 76.8731 18.2273 76.2386 18.2273 75.4545C18.2273 74.803 18.4034 74.2348 18.7557 73.75C19.1117 73.2614 19.589 72.8826 20.1875 72.6136C20.7898 72.3409 21.4621 72.2045 22.2045 72.2045C22.9545 72.2045 23.6212 72.339 24.2045 72.608C24.7879 72.8731 25.25 73.2367 25.5909 73.6989C25.9356 74.161 26.1174 74.6856 26.1364 75.2727H24.7727ZM31.9759 84.1818C31.1577 84.1818 30.4531 83.9886 29.8622 83.6023C29.2713 83.2159 28.8168 82.6837 28.4986 82.0057C28.1804 81.3277 28.0213 80.553 28.0213 79.6818C28.0213 78.7955 28.1842 78.0133 28.5099 77.3352C28.8395 76.6534 29.2978 76.1212 29.8849 75.7386C30.4759 75.3523 31.1652 75.1591 31.9531 75.1591C32.5668 75.1591 33.1198 75.2727 33.6122 75.5C34.1046 75.7273 34.508 76.0455 34.8224 76.4545C35.1368 76.8636 35.3319 77.3409 35.4077 77.8864H34.0668C33.9645 77.4886 33.7372 77.1364 33.3849 76.8295C33.0365 76.5189 32.5668 76.3636 31.9759 76.3636C31.4531 76.3636 30.9948 76.5 30.6009 76.7727C30.2107 77.0417 29.9058 77.4223 29.6861 77.9148C29.4702 78.4034 29.3622 78.9773 29.3622 79.6364C29.3622 80.3106 29.4683 80.8977 29.6804 81.3977C29.8963 81.8977 30.1993 82.286 30.5895 82.5625C30.9834 82.839 31.4455 82.9773 31.9759 82.9773C32.3243 82.9773 32.6406 82.9167 32.9247 82.7955C33.2088 82.6742 33.4493 82.5 33.6463 82.2727C33.8433 82.0455 33.9834 81.7727 34.0668 81.4545H35.4077C35.3319 81.9697 35.1444 82.4337 34.8452 82.8466C34.5497 83.2557 34.1577 83.5814 33.669 83.8239C33.1842 84.0625 32.6198 84.1818 31.9759 84.1818ZM38.7088 78.75V84H37.3679V72.3636H38.7088V76.6364H38.8224C39.027 76.1856 39.3338 75.8277 39.7429 75.5625C40.1558 75.2936 40.705 75.1591 41.3906 75.1591C41.9853 75.1591 42.5062 75.2784 42.9531 75.517C43.4001 75.7519 43.7467 76.1136 43.9929 76.6023C44.2429 77.0871 44.3679 77.7045 44.3679 78.4545V84H43.027V78.5455C43.027 77.8523 42.8471 77.3163 42.4872 76.9375C42.1312 76.5549 41.6368 76.3636 41.0043 76.3636C40.5649 76.3636 40.1709 76.4564 39.8224 76.642C39.4777 76.8277 39.205 77.0985 39.0043 77.4545C38.8073 77.8106 38.7088 78.2424 38.7088 78.75ZM66.1619 72.3636V84H64.821V72.3636H66.1619ZM68.6179 84V75.2727H69.9588V84H68.6179ZM69.2997 73.8182C69.0384 73.8182 68.813 73.7292 68.6236 73.5511C68.438 73.3731 68.3452 73.1591 68.3452 72.9091C68.3452 72.6591 68.438 72.4451 68.6236 72.267C68.813 72.089 69.0384 72 69.2997 72C69.5611 72 69.7846 72.089 69.9702 72.267C70.1596 72.4451 70.2543 72.6591 70.2543 72.9091C70.2543 73.1591 70.1596 73.3731 69.9702 73.5511C69.7846 73.7292 69.5611 73.8182 69.2997 73.8182ZM76.3011 75.2727V76.4091H71.5966V75.2727H76.3011ZM73.0057 84V74.0682C73.0057 73.5682 73.1231 73.1515 73.358 72.8182C73.5928 72.4848 73.8977 72.2348 74.2727 72.0682C74.6477 71.9015 75.0436 71.8182 75.4602 71.8182C75.7898 71.8182 76.0587 71.8447 76.267 71.8977C76.4754 71.9508 76.6307 72 76.733 72.0455L76.3466 73.2045C76.2784 73.1818 76.1837 73.1534 76.0625 73.1193C75.9451 73.0852 75.7898 73.0682 75.5966 73.0682C75.1534 73.0682 74.8333 73.1799 74.6364 73.4034C74.4432 73.6269 74.3466 73.9545 74.3466 74.3864V84H73.0057ZM79.044 87.2727C78.8168 87.2727 78.6141 87.2538 78.4361 87.2159C78.258 87.1818 78.1349 87.1477 78.0668 87.1136L78.4077 85.9318C78.7334 86.0152 79.0213 86.0455 79.2713 86.0227C79.5213 86 79.7429 85.8883 79.9361 85.6875C80.133 85.4905 80.313 85.1705 80.4759 84.7273L80.7259 84.0455L77.4986 75.2727H78.9531L81.3622 82.2273H81.4531L83.8622 75.2727H85.3168L81.6122 85.2727C81.4455 85.7235 81.2391 86.0966 80.9929 86.392C80.7467 86.6913 80.4607 86.9129 80.1349 87.0568C79.813 87.2008 79.4493 87.2727 79.044 87.2727Z" fill="white"/>
<g filter="url(#filter4_d_64_127)">
<path d="M44.3929 75.2468C42.5191 78.655 43.7629 82.9369 47.1711 84.8108C50.5793 86.6846 54.8612 85.4408 56.735 82.0326C58.6089 78.6244 57.365 74.3425 53.9569 72.4686C50.5487 70.5948 46.2667 71.8386 44.3929 75.2468ZM55.249 81.2156C53.8264 83.8031 50.5756 84.7474 47.9881 83.3248C45.4006 81.9022 44.4563 78.6513 45.8789 76.0638C47.3015 73.4763 50.5524 72.532 53.1399 73.9546C55.7273 75.3772 56.6717 78.6281 55.249 81.2156Z" fill="#B7B7B7"/>
</g>
<g filter="url(#filter5_d_64_127)">
<path d="M64.1804 82.2079C66.1512 78.8548 65.0305 74.539 61.6774 72.5683C58.3243 70.5976 54.0085 71.7182 52.0378 75.0713C50.0671 78.4244 51.1877 82.7402 54.5408 84.7109C57.8939 86.6817 62.2097 85.561 64.1804 82.2079ZM53.4998 75.9306C54.9959 73.3849 58.2725 72.5341 60.8182 74.0303C63.3638 75.5264 64.2146 78.803 62.7185 81.3487C61.2223 83.8943 57.9457 84.7451 55.4001 83.249C52.8544 81.7528 52.0036 78.4762 53.4998 75.9306Z" fill="#B7B7B7"/>
</g>
<g opacity="0.99" filter="url(#filter6_d_64_127)">
<path d="M50.2064 72.4556C50.1793 71.9881 49.7768 71.6259 49.3159 71.7089C48.2817 71.8951 47.2986 72.3112 46.4409 72.9306C45.3533 73.716 44.5126 74.7959 44.0179 76.043C43.5232 77.2901 43.395 78.6526 43.6485 79.9701C43.9019 81.2876 44.5265 82.5052 45.4486 83.4798C46.3707 84.4543 47.552 85.1452 48.8534 85.4711C50.1549 85.797 51.5224 85.7443 52.7949 85.3193C54.0675 84.8942 55.1921 84.1146 56.0365 83.072C56.7024 82.2498 57.1721 81.2912 57.4152 80.2689C57.5235 79.8133 57.1841 79.3914 56.7188 79.3385V79.3385C56.2535 79.2857 55.84 79.6232 55.7144 80.0743C55.5189 80.7762 55.1811 81.4338 54.7187 82.0047C54.0776 82.7962 53.2238 83.3881 52.2577 83.7108C51.2916 84.0335 50.2534 84.0735 49.2653 83.8261C48.2773 83.5787 47.3804 83.0541 46.6804 82.3143C45.9803 81.5744 45.5062 80.6499 45.3138 79.6497C45.1213 78.6495 45.2186 77.6151 45.5942 76.6683C45.9698 75.7215 46.608 74.9017 47.4338 74.3053C48.0293 73.8752 48.7046 73.5743 49.4162 73.4179C49.8736 73.3173 50.2334 72.9231 50.2064 72.4556V72.4556Z" fill="black"/>
</g>
<g opacity="0.99" filter="url(#filter7_d_64_127)">
<path d="M51.9335 79.122C51.4667 79.1585 51.1126 79.5683 51.2049 80.0274C51.424 81.1172 51.8988 82.1438 52.5953 83.0204C53.4683 84.1192 54.6496 84.9321 55.9878 85.3548C57.326 85.7775 58.7599 85.7908 60.1057 85.3929C61.4515 84.9951 62.6477 84.2042 63.5409 83.1218C64.434 82.0394 64.9835 80.7148 65.1187 79.318C65.2538 77.9211 64.9686 76.5158 64.2995 75.2822C63.6305 74.0486 62.6081 73.043 61.3636 72.3945C60.3708 71.8771 59.2726 71.6057 58.1611 71.5975C57.6928 71.5941 57.3576 72.0195 57.4105 72.4848V72.4848C57.4633 72.9501 57.8849 73.2774 58.3527 73.2987C59.1265 73.334 59.887 73.5372 60.5799 73.8983C61.5247 74.3907 62.3009 75.1541 62.8089 76.0907C63.3168 77.0272 63.5334 78.0942 63.4307 79.1546C63.3281 80.2151 62.911 81.2207 62.2329 82.0425C61.5548 82.8642 60.6466 83.4647 59.6249 83.7667C58.6032 84.0688 57.5146 84.0587 56.4986 83.7378C55.4827 83.4168 54.5858 82.7997 53.923 81.9655C53.437 81.3537 53.0931 80.6456 52.9115 79.8926C52.8018 79.4373 52.4004 79.0855 51.9335 79.122V79.122Z" fill="#000101"/>
</g>
<defs>
<filter id="filter0_d_64_127" x="5.64801" y="9.9155" width="61.8081" height="61.7796" filterUnits="userSpaceOnUse" color-interpolation-filters="sRGB">
<feFlood flood-opacity="0" result="BackgroundImageFix"/>
<feColorMatrix in="SourceAlpha" type="matrix" values="0 0 0 0 0 0 0 0 0 0 0 0 0 0 0 0 0 0 127 0" result="hardAlpha"/>
<feOffset dy="4"/>
<feGaussianBlur stdDeviation="2"/>
<feComposite in2="hardAlpha" operator="out"/>
<feColorMatrix type="matrix" values="0 0 0 0 0 0 0 0 0 0 0 0 0 0 0 0 0 0 0.25 0"/>
<feBlend mode="normal" in2="BackgroundImageFix" result="effect1_dropShadow_64_127"/>
<feBlend mode="normal" in="SourceGraphic" in2="effect1_dropShadow_64_127" result="shape"/>
</filter>
<filter id="filter1_d_64_127" x="34.4567" y="9.91888" width="61.819" height="61.819" filterUnits="userSpaceOnUse" color-interpolation-filters="sRGB">
<feFlood flood-opacity="0" result="BackgroundImageFix"/>
<feColorMatrix in="SourceAlpha" type="matrix" values="0 0 0 0 0 0 0 0 0 0 0 0 0 0 0 0 0 0 127 0" result="hardAlpha"/>
<feOffset dy="4"/>
<feGaussianBlur stdDeviation="2"/>
<feComposite in2="hardAlpha" operator="out"/>
<feColorMatrix type="matrix" values="0 0 0 0 0 0 0 0 0 0 0 0 0 0 0 0 0 0 0.25 0"/>
<feBlend mode="normal" in2="BackgroundImageFix" result="effect1_dropShadow_64_127"/>
<feBlend mode="normal" in="SourceGraphic" in2="effect1_dropShadow_64_127" result="shape"/>
</filter>
<filter id="filter2_d_64_127" x="5.63702" y="10.8811" width="59.6601" height="60.8085" filterUnits="userSpaceOnUse" color-interpolation-filters="sRGB">
<feFlood flood-opacity="0" result="BackgroundImageFix"/>
<feColorMatrix in="SourceAlpha" type="matrix" values="0 0 0 0 0 0 0 0 0 0 0 0 0 0 0 0 0 0 127 0" result="hardAlpha"/>
<feOffset dy="4"/>
<feGaussianBlur stdDeviation="2"/>
<feComposite in2="hardAlpha" operator="out"/>
<feColorMatrix type="matrix" values="0 0 0 0 0 0 0 0 0 0 0 0 0 0 0 0 0 0 0.25 0"/>
<feBlend mode="normal" in2="BackgroundImageFix" result="effect1_dropShadow_64_127"/>
<feBlend mode="normal" in="SourceGraphic" in2="effect1_dropShadow_64_127" result="shape"/>
</filter>
<filter id="filter3_d_64_127" x="36.0605" y="10.4067" width="60.1417" height="61.3268" filterUnits="userSpaceOnUse" color-interpolation-filters="sRGB">
<feFlood flood-opacity="0" result="BackgroundImageFix"/>
<feColorMatrix in="SourceAlpha" type="matrix" values="0 0 0 0 0 0 0 0 0 0 0 0 0 0 0 0 0 0 127 0" result="hardAlpha"/>
<feOffset dy="4"/>
<feGaussianBlur stdDeviation="2"/>
<feComposite in2="hardAlpha" operator="out"/>
<feColorMatrix type="matrix" values="0 0 0 0 0 0 0 0 0 0 0 0 0 0 0 0 0 0 0.25 0"/>
<feBlend mode="normal" in2="BackgroundImageFix" result="effect1_dropShadow_64_127"/>
<feBlend mode="normal" in="SourceGraphic" in2="effect1_dropShadow_64_127" result="shape"/>
</filter>
<filter id="filter4_d_64_127" x="39.5204" y="71.5961" width="22.0872" height="22.0872" filterUnits="userSpaceOnUse" color-interpolation-filters="sRGB">
<feFlood flood-opacity="0" result="BackgroundImageFix"/>
<feColorMatrix in="SourceAlpha" type="matrix" values="0 0 0 0 0 0 0 0 0 0 0 0 0 0 0 0 0 0 127 0" result="hardAlpha"/>
<feOffset dy="4"/>
<feGaussianBlur stdDeviation="2"/>
<feComposite in2="hardAlpha" operator="out"/>
<feColorMatrix type="matrix" values="0 0 0 0 0 0 0 0 0 0 0 0 0 0 0 0 0 0 0.25 0"/>
<feBlend mode="normal" in2="BackgroundImageFix" result="effect1_dropShadow_64_127"/>
<feBlend mode="normal" in="SourceGraphic" in2="effect1_dropShadow_64_127" result="shape"/>
</filter>
<filter id="filter5_d_64_127" x="47.0657" y="71.5962" width="22.0869" height="22.0868" filterUnits="userSpaceOnUse" color-interpolation-filters="sRGB">
<feFlood flood-opacity="0" result="BackgroundImageFix"/>
<feColorMatrix in="SourceAlpha" type="matrix" values="0 0 0 0 0 0 0 0 0 0 0 0 0 0 0 0 0 0 127 0" result="hardAlpha"/>
<feOffset dy="4"/>
<feGaussianBlur stdDeviation="2"/>
<feComposite in2="hardAlpha" operator="out"/>
<feColorMatrix type="matrix" values="0 0 0 0 0 0 0 0 0 0 0 0 0 0 0 0 0 0 0.25 0"/>
<feBlend mode="normal" in2="BackgroundImageFix" result="effect1_dropShadow_64_127"/>
<feBlend mode="normal" in="SourceGraphic" in2="effect1_dropShadow_64_127" result="shape"/>
</filter>
<filter id="filter6_d_64_127" x="39.5217" y="71.697" width="21.9138" height="21.985" filterUnits="userSpaceOnUse" color-interpolation-filters="sRGB">
<feFlood flood-opacity="0" result="BackgroundImageFix"/>
<feColorMatrix in="SourceAlpha" type="matrix" values="0 0 0 0 0 0 0 0 0 0 0 0 0 0 0 0 0 0 127 0" result="hardAlpha"/>
<feOffset dy="4"/>
<feGaussianBlur stdDeviation="2"/>
<feComposite in2="hardAlpha" operator="out"/>
<feColorMatrix type="matrix" values="0 0 0 0 0 0 0 0 0 0 0 0 0 0 0 0 0 0 0.25 0"/>
<feBlend mode="normal" in2="BackgroundImageFix" result="effect1_dropShadow_64_127"/>
<feBlend mode="normal" in="SourceGraphic" in2="effect1_dropShadow_64_127" result="shape"/>
</filter>
<filter id="filter7_d_64_127" x="47.1902" y="71.5975" width="21.9612" height="22.0844" filterUnits="userSpaceOnUse" color-interpolation-filters="sRGB">
<feFlood flood-opacity="0" result="BackgroundImageFix"/>
<feColorMatrix in="SourceAlpha" type="matrix" values="0 0 0 0 0 0 0 0 0 0 0 0 0 0 0 0 0 0 127 0" result="hardAlpha"/>
<feOffset dy="4"/>
<feGaussianBlur stdDeviation="2"/>
<feComposite in2="hardAlpha" operator="out"/>
<feColorMatrix type="matrix" values="0 0 0 0 0 0 0 0 0 0 0 0 0 0 0 0 0 0 0.25 0"/>
<feBlend mode="normal" in2="BackgroundImageFix" result="effect1_dropShadow_64_127"/>
<feBlend mode="normal" in="SourceGraphic" in2="effect1_dropShadow_64_127" result="shape"/>
</filter>
</defs>
</svg>
