<svg width="428" height="926" viewBox="0 0 428 926" fill="none" xmlns="http://www.w3.org/2000/svg">
<rect x="-49" y="31" width="172" height="162" fill="#130B51"/>
<rect x="-21" y="321" width="172" height="162" fill="#130B51"/>
<rect x="-39" y="41" width="151" height="142" fill="#131524"/>
<rect x="-11" y="331" width="151" height="142" fill="#131524"/>
<rect x="42" y="124" width="195" height="186" fill="#130B51"/>
<rect x="203" y="770" width="195" height="186" fill="#130B51"/>
<rect x="131" y="436" width="195" height="186" fill="#130B51"/>
<rect x="52" y="134" width="175" height="167" fill="#131524"/>
<rect x="213" y="780" width="175" height="167" fill="#131524"/>
<rect x="141" y="446" width="175" height="167" fill="#131524"/>
<rect x="37" y="521" width="137" height="120" fill="#130B51"/>
<rect x="344" y="673" width="137" height="120" fill="#130B51"/>
<rect x="112" y="681" width="137" height="120" fill="#130B51"/>
<rect x="244" y="226" width="137" height="120" fill="#130B51"/>
<rect x="8" y="793" width="137" height="120" fill="#130B51"/>
<rect x="46" y="529" width="119" height="104" fill="#131524"/>
<rect x="353" y="681" width="119" height="104" fill="#131524"/>
<rect x="121" y="689" width="119" height="104" fill="#131524"/>
<rect x="253" y="234" width="119" height="104" fill="#131524"/>
<rect x="17" y="801" width="119" height="104" fill="#131524"/>
<rect x="270" y="308" width="150" height="142" fill="#130B51"/>
<rect x="-59" y="638" width="150" height="142" fill="#130B51"/>
<rect x="263" y="574" width="112" height="106" fill="#130B51"/>
<rect x="278" y="317" width="132" height="124" fill="#131524"/>
<rect x="-51" y="647" width="132" height="124" fill="#131524"/>
<rect x="270" y="581" width="98" height="92" fill="#131524"/>
<rect x="323" y="-46" width="97" height="132" fill="#130B51"/>
<rect x="380" y="477" width="116" height="158" fill="#130B51"/>
<rect x="330" y="-38" width="82" height="116" fill="#131524"/>
<rect x="388" y="487" width="98" height="138" fill="#131524"/>
<rect x="312" y="112" width="116" height="158" fill="#130B51"/>
<rect x="320" y="122" width="98" height="138" fill="#131524"/>
<rect x="169" y="-8" width="116" height="120" fill="#130B51"/>
<rect x="177" width="98" height="104" fill="#131524"/>
</svg>
