<svg width="35" height="42" viewBox="0 0 35 42" fill="none" xmlns="http://www.w3.org/2000/svg">
<path d="M23 6.7L24.45 10.55L28.3 12L24.45 13.45L23 17.3L21.55 13.45L17.7 12L21.55 10.55L23 6.7ZM23 1L20 9L12 12L20 15L23 23L26 15L34 12L26 9L23 1Z" fill="#54C2FF"/>
<path d="M20 30.1455L21.0545 32.9455L23.8545 34L21.0545 35.0545L20 37.8545L18.9455 35.0545L16.1455 34L18.9455 32.9455L20 30.1455ZM20 26L17.8182 31.8182L12 34L17.8182 36.1818L20 42L22.1818 36.1818L28 34L22.1818 31.8182L20 26Z" fill="#54C2FF"/>
<path d="M6.5 16.3682L7.35682 18.6432L9.63182 19.5L7.35682 20.3568L6.5 22.6318L5.64318 20.3568L3.36818 19.5L5.64318 18.6432L6.5 16.3682ZM6.5 13L4.72727 17.7273L0 19.5L4.72727 21.2727L6.5 26L8.27273 21.2727L13 19.5L8.27273 17.7273L6.5 13Z" fill="#54C2FF"/>
</svg>
